<svg clip-rule="evenodd" fill-rule="evenodd" stroke-linejoin="round" stroke-miterlimit="2" viewBox="0 0 1143 199" xmlns="http://www.w3.org/2000/svg"><g fill="#fbf4ff" fill-rule="nonzero"><path d="m19.108 2.132c-2.813 2.328-6.499 6.111-6.499 9.991 0 3.104 3.686 6.402 7.275 6.402 1.26 0 1.746-2.522 1.746-3.686 0-1.65-.873-2.522-2.134-4.559.097-2.23.388-4.268.388-6.499 0-.776 0-.873-.776-1.649zm-12.61 0c-2.812 2.328-6.498 6.111-6.498 9.991 0 3.104 3.686 6.402 7.274 6.402 1.261 0 1.746-2.522 1.746-3.686 0-1.65-.873-2.522-2.134-4.559.097-2.23.388-4.268.388-6.499 0-.776 0-.873-.776-1.649zm71.002 33.173v.194s0-.097-.098-.194c.68 0 1.164-.582 1.164-.776s-.97-.679-.97-1.552c0-.97 1.067-1.552 1.067-2.134 0-.194-.388-.679-.388-.97 0-.582.873-1.358.873-2.23 0-.486-.388-.97-.388-1.456 0 .194 1.164-4.073 2.134-5.625 0-1.261-.291-2.134-.291-2.813 0-1.746 1.746-4.462 1.746-7.372 0-3.783-.389-10.377-4.269-10.377-3.2 0-7.275 1.842-8.535 5.14-.485 1.261-2.716 1.843-3.492 3.492-.97 1.94-2.522 3.298-4.074 4.559-.388 1.552-.388 1.455-1.649 2.619-3.492 3.395-5.626 8.244-6.11 8.923-2.038 3.007-6.402 10.476-7.47 10.476-1.648 0-2.618-13.191-2.618-16.004 0-1.455.388-2.91.388-4.365 0-5.82-.097-8.924-6.208-10.67-3.104 0-2.619 3.298-2.619 6.014 0 2.813-.485 5.626-.485 8.439 0 1.358.291 2.813.291 4.267-.194.68-.194 1.358-.194 1.94 0 7.857 1.746 10.96 3.201 15.423.582 1.843 3.686 4.461 3.686 4.558.29.291.679.388 1.067.388.485 0 .873-.097 1.358-.097s.97.388 1.455.388c.873 0 2.522-.97 3.685-1.551h-.097c.291 0 .873.29 1.261.29 2.522 0 4.947-8.341 5.723-9.214 4.268-4.268 4.656-11.252 5.626-13.967.29-.873-.097-1.94.582-2.716.29.485.582.679.679.679s2.619-3.007 2.619-2.91c0-1.65 2.813-1.746 2.813-3.783 0-1.455 2.133-3.492 3.006-3.492.582 0 .582.388.582.776-.097 3.977-1.164 7.857-1.164 11.64 0 .485.291 1.067.291 1.648 0 1.552-1.357 4.753-1.357 7.178 0 1.261.775 3.298.775 5.14 0 .97-1.648 1.165-1.648 2.329 0 .29.194.679.194 1.164 0 2.425-4.462 5.431-8.051 6.11-2.716 1.067-10.767 7.857-11.737 9.409-1.551 2.425-4.752 5.723-4.752 7.08 0 1.359-.388 2.717-.388 4.172 0 .387.097.775.097 1.163 0 1.358-.97 2.037-.97 2.813 0 .582.679 1.94.873 3.007.194 1.843-.291 3.298 2.328 4.074 3.782 1.843 4.558 4.753 8.244 4.753.68 0 1.261-.291 1.94-.291.291 0 .68 0 .97.29 1.455 0 2.716-3.006 5.238-3.006.388 0 .873.29 1.358.29 1.067 0 3.589-3.297 4.17-4.267-.484 0-.775-.485-.775-.97 0-.679.29-.97.388-.97.388 0 .485.776.485 1.261 0 .194-.097.485-.194.776.582-1.26 1.164-2.425 1.164-3.686 0-.582-.291-1.26-.291-1.843 0-1.26 1.648-4.461 1.842-5.431.194-.68.194-1.455.291-2.134 2.813-.194.485-2.716 3.783-5.626.873-.679.194-2.134 1.164-2.91.582-.485.873-1.164.873-1.94 0-.873-.29-1.552-.29-2.522-.195.582-.389.776-.777 1.164-.582-1.067-.194-.582-.485-2.328 0-3.491 5.335-3.976 7.76-5.334 1.94-1.067 5.723-1.94 8.05-1.94.582 0 1.261.29 1.261.29 1.164-1.066 1.552-1.842 1.65-2.618 0-.776-1.65-.97-2.426-1.067-.678 0-1.454.097-2.133.097-.388 0-.68-.097-1.067-.097-1.94 0-3.395 1.26-4.56 1.26-.387 0-.872-.193-1.357-.193-1.261 0-3.007.679-4.462.679-.485 0-.873-.291-.873-.776 0-.291.194-.582.194-.873 0-.485-.29-.873-.679-1.261zm-12.902 31.814c.582 1.261 1.164 1.164 1.164 1.746 0 .388-.291.776-.776 1.552-.291-.194-.68-.388-1.067-.388-1.261 0-1.164 2.231-2.91 2.62-1.94.387-2.134 2.424-6.014 2.424-2.23-.194-3.298-3.2-3.298-4.947 0-.485.097-.873.097-1.358 0-.388-.29-.776-.29-1.067 0-7.08 5.431-12.415 10.572-16.1 1.552-1.068 3.104-2.62 5.238-2.91.582 0 1.067.581 1.067 1.163-.194 1.552-.485 2.425-1.164 4.171.97.485 1.746.97 1.746 1.649s-.776 2.23-1.261 2.23c-.291 0-.582-.193-.582-.581 0-.291.097-.485.194-.776 0-.291-.097-.388-.485-.388s-.582 1.164-.582 1.455c0 .97 1.26 1.552 1.26 2.328 0 2.23-1.842 5.044-2.91 7.177zm9.99-34.627c.194.097.291.388.291.679s0 .582-.582.873c-.194 0-.29-.485-.29-.776s.193-.776.581-.776zm.388 19.884c.097-.097.097-.194.097-.29.097.193.194.29.194.484 0 .097-.097.291-.194.388 0-.194 0-.388-.097-.582zm-16.78 26.77c0-.193.097-.193.194-.193s.097.097.097.097c0 .097 0 .194-.097.194s-.097-.097-.194-.097zm16.877-24.345c-.097.194-.194.485-.29.485-.195-.097-.292-.194-.486-.291.097-.097.097-.291.194-.291.194 0 .388.097.582.097zm-7.177-42.484h-.194c0-.097 0-.194.097-.291 0 0 .194 0 .194.097s-.097.194-.097.194zm6.498 35.403c.097.194.194.485.194.68 0 0-.097.096-.194.096a.209.209 0 0 1 -.194-.194c0-.194.097-.388.194-.582zm-13.87 32.785c.388-.097 1.067.097 1.067-.582 0-.097-.097-.388-.388-.388-.097 0-.485.776-.679.97zm.097-.097-.097.097c.194.097.29.097.29.194-.193 0-.193-.194-.193-.291z"/><path d="m139.285 31.813c-5.14.291-9.796 2.328-14.646 3.977-.291.097-.582.194-.873.194-1.649 0-1.94-2.037-2.328-3.589-1.067-3.589-4.656-7.566-7.372-8.536-2.327-.776-4.461-2.812-7.08-2.812h-4.656c-6.402 0-10.282.873-10.282 10.96 0 2.813 2.716 6.79 2.716 8.827 0 2.23-2.037 7.08-2.037 8.341 0 1.843-.775 3.59-.775 5.529 0 9.99 6.886 15.131 6.886 15.131 1.94 1.358 4.268 1.746 6.305 2.328 1.26-.776 4.753-2.813 5.432-2.813.097 0 .097.097.097.097 6.886-6.886 7.274-9.214 8.632-10.96 1.455-1.843-.194-4.85 1.94-6.014.388-.388 1.94-8.148 1.94-8.73.388-2.812 1.067-3.394 4.753-5.237 2.813-1.358 5.917-2.91 9.214-3.201 3.104-.291 4.074-1.164 4.074-1.94 0-.873-1.26-1.746-1.746-1.746a.209.209 0 0 0 -.194.194zm-21.435 14.355c-.29 1.746-.097 4.462-1.164 5.141-1.746 1.164-5.528 12.804-10.281 12.804-2.522 0-3.783-3.977-3.783-5.917 0-1.164.679-2.716.679-3.977 0-.485-.097-.97-.097-1.455 0-3.007.679-5.917 2.619-6.402 3.783 0 7.275-1.455 10.766-2.715 1.455 0 1.067 1.26 1.261 2.521zm-14.064-21.824c6.693 0 10.766 6.402 13.191 11.64.291.582.291 1.164.291 1.746 0 2.23-5.625 3.298-8.147 3.589-.485 0-1.261-.097-1.261-.873 0-.873 1.358-2.62 1.358-3.492 0-2.231-5.917-3.686-6.499-3.88-.679-.291-1.164-.388-1.455-.388-.679 0-.97.582-2.328 1.94 0 .097-.097.097-.194.097-1.26 0-1.26-2.037-1.26-2.91 0-2.813 1.745-6.79 4.752-7.178.582-.097 1.164-.194 1.552-.29z"/><path d="m167.899 33.171c.097.388.097.873.097 1.26 0 1.456-.388 2.91-.388 4.366 0 .388.097.873.097 1.26 0 3.493-.97 7.275-.97 10.864 0 1.455.291 2.91.291 4.365 0 1.26-.097 2.716-.097 3.977 0 .776.291 1.455.291 2.134 0 .776-.194 1.455-.291 2.134 0 5.043 1.94 6.304 2.134 8.244.194 1.358 2.91 3.104 4.947 3.104 5.82 0 6.79-9.408 9.408-12.61.873-1.066.388-2.812 1.261-4.073 1.552-2.231 2.425-4.656 3.686-7.08 1.746-2.523 4.365-5.336 5.238-7.76 0-.97-.97-.97-1.65-.97-2.715 0-4.267 3.491-5.334 5.722-2.134 2.813-3.783 5.917-5.335 9.02-1.26 2.523-4.946 10.476-6.304 10.476-.97 0-1.164-2.618-1.164-3.88 0-.872.194-1.745.582-2.618.873-2.037.97-4.171 1.067-6.402 0-.388-.097-.873-.097-1.26 0-2.426 1.455-4.366 1.455-6.5 0-1.164-.097-2.23-.097-3.394 0-3.59 1.552-5.432 1.552-10.282 0-6.693-1.455-7.566-7.372-7.566-2.134 0-3.395 1.746-4.947 2.813-6.305 4.462-11.445 10.476-16.004 16.78-.97 1.358-1.94 3.395-3.395 4.171-1.067 0-1.261-2.91-1.261-5.916 0-7.76.776-10.67.776-17.363 0-3.976-5.044-4.073-7.76-4.073-1.358 0-2.134 13.385-2.425 16.489-.194 2.037-.485 4.17-.485 6.207 0 2.62 1.358 4.753 1.358 7.47 0 5.625 4.85 8.535 8.439 8.535 6.79 0 8.342-5.529 10.185-11.349.388-1.164.582-2.425 1.648-3.104.097-1.164 1.455-1.552 1.65-2.715.193-1.164 5.722-10.476 9.214-10.476zm46.073 21.63c.097 1.552-.097 3.589.582 4.947 2.037 4.268 2.328 10.572 10.184 10.572 4.56 0 12.804-8.244 14.453-9.99 1.455-1.455 9.214-9.603 9.7-9.7 1.066-2.328 5.625-4.268 5.625-6.208 0-.872-.776-1.066-1.649-1.066-3.686 0-11.348 6.886-14.84 10.669-2.231 2.425-11.349 8.827-12.513 8.827-2.522 0-3.492-7.76-3.492-11.349 0-4.365 1.94-8.147 2.813-12.124 2.62-4.753 7.566-11.446 11.446-11.446.388 0 .679.194.679.68-.097 1.066-.291 2.133-.291 3.297 0 1.455 1.067 3.395 2.522 3.395 2.813 0 4.074-7.372 4.074-9.99 0-3.88-10.379-5.335-10.379-5.335-1.067 0-4.462 1.746-5.14 3.588-.486 1.164-2.717.388-3.008 1.746-.29 1.358-1.649 1.552-2.037 2.813-.582 1.746-2.23 3.007-3.2 4.753-1.843 3.395-4.074 8.633-4.074 10.767 0 3.685-1.455 7.274-1.455 11.154z"/><path d="m246.756 57.517c1.843.194 1.164 1.164 1.455 1.843 0 4.074 3.59 6.208 6.79 6.208 4.559 0 4.365-.097 9.215-8.924 1.94-4.074 5.334-11.543 6.013-11.737 2.425-.679 2.037-2.23 2.62-4.655.193-.873 3.685-3.977 3.879-3.977 1.26-.68 1.552-1.552 2.23-3.104 2.426 0 1.262-2.425 2.814-2.716.776-.097 1.455-.29 2.328-.485.097 1.067.582 2.037.582 3.201-.97 1.843-1.455.582-1.455 7.372 0 .485 0 1.067.097 1.552 0 1.067-1.455 2.812-1.552 4.752-.485 8.245-1.358 17.848-1.358 25.413 0 1.358 1.455 1.843 1.455 3.492 0 .97-.097 1.94-.097 2.91.097 1.649-.097 3.395 1.358 4.656.485.29.097 1.455 1.067 2.328 1.649 1.552 2.812 3.103 5.237 3.103 1.455 0 3.783 0 4.56-1.745.678-1.552 2.036-2.716 2.327-4.753 0-2.037 0-5.335.776-6.79.97-1.26.388-2.813 1.067-3.783 1.26-2.425 1.746-6.013 2.425-8.73.679-2.812 2.23-5.431 2.619-8.341 0-3.007 5.14-9.215 5.82-10.282a.74.74 0 0 0 .193-.484c0-.97-1.454-1.455-2.133-1.455-2.037 0-4.85 3.2-5.53 5.722-.096.388-.29.97-.678 1.261-2.716 2.522-2.231 4.947-3.201 8.633-.291 1.26-1.26 1.358-1.358 2.328-1.26 3.492-2.23 6.983-3.298 10.766 0 2.134-2.23 9.409-3.686 9.409-.29 0-1.358-3.395-1.358-3.783s.097-.873.194-1.26c-.582-.583-.776-1.262-.776-1.94 0-.583.097-1.359.097-2.038 0-1.455-.097-2.91-.097-4.462 0-4.461.97-9.408.97-13.87 0-2.037 1.552-4.074 1.552-5.529 0-7.274 2.813-14.646 2.813-20.95 0-4.56-3.007-5.626-5.14-5.626-2.425 0-3.395 1.648-5.044 2.327-3.007 1.164-4.656 4.268-7.178 5.53-2.23-2.91-4.462-4.948-8.924-4.948-6.692 0-7.856 4.85-10.572 8.73-3.395 4.85-4.074 8.05-5.238 11.058-1.164 3.006-2.425 6.207-2.425 9.408-.097.873-.679 1.261-1.455 1.455v2.91zm26.383-26.674c0 .291.097.485.097.68 0 .969-1.455 2.909-1.455 2.909-2.134 1.649-3.298 4.17-5.335 5.82-1.067.873-1.842 2.037-2.521 3.104-1.358 2.23-6.402 9.02-6.79 9.02-.485 0-.582-.29-.582-.679 1.455-7.372 6.014-16.78 12.124-20.854.68-.388 1.261-.582 2.037-.582.68 0 1.746.291 2.425.582z"/><path d="m336.962 79.05c1.455-1.261 2.62-4.462 2.91-4.656.97-.485.97-1.164.97-2.23 0-1.262 1.94-2.426 1.94-4.366 0-.582-.194-1.26-.194-1.843 0 .097 1.26-5.043 1.358-5.14 1.164-1.261.873-3.201 2.425-4.753.873-.679.194-2.134.776-3.007 1.26-.776 4.462-5.529 4.462-7.275 0-.679-.485-1.067-1.164-1.067-3.783 0-4.365 4.56-6.208 6.5-.97 1.066-1.164 1.842-1.261 3.2 0 .679-1.261.582-1.552 1.455-1.552 3.2-5.14 12.221-6.402 12.221-.97 0-.776-5.625-.776-8.535 0-3.104.097-6.014.873-7.372v-.097c0-.194-.388-.97-.388-1.552.485-.388 1.552-.679 1.552-1.26 0-.486-1.067-1.262-1.067-1.94 0-.389.291-.97.291-1.359 0-.388-.194-.776-.194-1.067 0-1.648 2.037-2.327 2.037-4.267 0-9.506.388-12.9-4.074-12.9-1.649 0-3.685.29-4.752 1.842-.485.776-4.171 2.328-5.723 4.171-1.164 1.358-2.134 3.2-3.201 4.365-3.88 2.716-7.08 10.184-9.506 10.184-.194-.29-.388-.485-.388-.776 0-1.94 1.552-4.073 1.843-5.916.194-4.268.388-8.536.388-12.804 0-2.23-.097-4.656-3.007-4.656-1.745 0-4.752 1.164-4.752 2.522 0 3.395-1.358 7.081-1.358 10.379 0 .582.097 1.067.097 1.552 0 .679-.485 1.164-.485 1.746 0 .776.388 1.552.388 2.328 0 2.327-.194 4.17-.194 6.886 0 4.268.388 9.603 4.17 9.603 5.626 0 8.051-4.268 10.961-8.73 1.358-2.037 4.268-6.498 4.462-8.147.29-2.425 5.82-7.663 6.693-7.663.194 0 .29.582.29.776 0 .873-.387 1.94-.387 2.813 0 1.552.388 3.104.388 4.656 0 .776-.097 3.103-1.261 3.88-.194.193-.388.387-.388.581 0 .485.582.776.582 1.358-.194 1.164-.776 2.425-.776 3.492 0 .776.97 1.164.97 1.746 0 .291-.194.679-.194.97 0 .388.097.679.097 1.067s-1.746 3.104-1.746 4.656c0 1.26.388 2.425.388 3.783 0 .873-.097 1.842-.097 2.812.194 5.141 1.94 12.319 7.08 12.319.776-.485 1.164-.68 1.65-.68.29 0 .775.098 1.454.195zm-7.08-29.293c-.097.194-.194.291-.194.485-.194-.194-.194-.29-.194-.582.097-.097.194-.097.194-.194.097.097.194.194.194.291zm3.491 14.84.097.292h-.194l.097-.291zm23.182-50.147c0 2.135-.194 4.463 1.358 4.463 6.208 0 7.469-7.954 7.469-11.446 0-2.425-2.425-6.014-5.82-6.014-.873 0-1.746.776-1.843 1.746 0 .776.097 2.231.097 3.395 0 2.425-1.26 5.626-1.26 7.857zm37.925 28.13c.389-2.037.583-2.716.583-5.044 0-1.455 1.26-2.522 1.26-3.977.291-2.425.485-4.753.776-7.178-.097-.097-.097-.29-.097-.388 0-.679.485-1.358.485-2.037 0-.194 0-.485-.097-.679.68-1.551 7.178-4.752 7.081-4.752 3.2-.68 5.432-.68 8.536-2.62.29-.193.679-.29 1.067-.29.29 0 .679.097.97.097.582 0 1.26-.68 1.649-.68.484 0 1.551.583 1.745.583.388 0 2.231-1.746 2.231-2.425 0-.291-.097-.582-.29-.97-.098.194-.292.291-.389.291-1.067 0 .485-3.783-3.491-3.783-1.358 0-1.164 1.746-2.037 1.746-.582 0-1.067-1.26-1.65-1.26-1.163 0-3.006 2.424-4.364 2.424-2.91 0-6.596 1.843-8.148 2.425-.97-.388-.776-1.649-1.649-2.231 0 .097.097.194.097.291.097-.097.097-.194.097-.194-.097 0-.194 0-.29.097.581-.388.775-1.746.775-3.104 0-4.17-.776-6.402-3.977-6.402-2.521 0-3.394 1.455-4.558 3.686.097.873.194 1.746.194 2.62 0 3.588-.291 9.99-2.813 10.572-3.783.582-6.596 3.297-6.887 3.297-1.067 0-3.2 1.746-5.238 2.134-1.164.194-3.88.194-3.88 1.261 0 2.91 5.335 3.783 6.402 3.783 4.947 0 5.529-2.813 8.439-2.813.29-.194.29-.582.97-.582.679 0 1.164.485 1.164 1.067 0 .388-.097.776-.097 1.164 0 .582.582 1.067.582 1.65 0 .29-.097.581-.194.775-.97 1.843-1.261 3.686-1.261 5.529 0 .582.097 1.26.097 1.746 0 .776-.291 1.552-.291 2.23 0 .97.29 1.94.29 2.91 0 .292-.096.582-.096.776 0 .388.97.97.97 1.552 0 .776-1.358.97-1.358 1.552 0 .776 1.649.194 1.649 1.65v-.098c.776-.388.873-1.164.873-2.037 0-.679-.097-1.358-.097-2.037 0-1.745 1.455-2.91 1.455-3.297 0-.873-1.358-2.134-1.358-2.91s.582-1.261 1.455-2.134c-.097.097-.097.194-.097.194.097-.097.097 0 .097-.194 0 0-.097.097-.194.097 0 1.164.582 4.753 1.455 4.753.388 0 .679-.097.873-.097.485 0 .485.29.582 1.26zm-2.327-8.439c-.097-.097-.194-.097-.194-.097 0-.097 0-.291.097-.291s.194 0 .194.097-.097.194-.097.291zm.485-4.268c.29 0 .29.194.29.291l-.193.194c-.097 0-.194-.097-.194-.29 0-.098.097-.195.097-.195zm-.097 17.653.097-.097c0 .873-.291 1.746-.291 2.62 0 .387.194.775.194 1.163 0 1.261-1.164 2.716-1.164 3.104 0 .679.97 1.552.97 2.522 0 .873-.68 1.649-.68 2.619 0 .194.098.485.098.679 0 .388-.291 1.26-.582 1.26-1.067 0-1.261-2.424-1.261-4.85 0-.969.097-1.842.097-2.618 0-1.358-.097-2.328-.388-2.328-.485.194-.485.68-.485 1.067 0 .388.097.68.097 1.067 0 .776-.291 1.552-.68 2.134h.098c.679.29.97.485.97.873 0 .873-.873 1.552-1.261 1.552-.68 0-.97-.68-1.358-.68-.97 0-.97 3.299-1.65 4.56 0 .194.486.582.68.582.776 0 1.26-3.007 2.037-3.007.388 0 .485.388.679.679 0 1.067-1.261 2.134-1.261 3.492 0 .388.097.776.097 1.164 0 1.842-2.134 4.946-2.134 5.334 0 1.164 1.164 3.88 1.164 4.268 0 .291-.097.68-.097.97 0 1.649 2.23 3.977 2.23 6.014-.096.29-.096.485-.096.679 0 1.164 2.328 3.492 4.85 3.492.679 0 3.297-.388 3.782-1.843 0-.194.582-.388.873-.388.194 0 .388.097.582.097s3.007-2.62 3.104-3.007c.291-1.067 1.455-.873 1.455-1.94.291-1.358.388-1.455 1.94-1.455.097 0 .485.291.679.291.485 0 .291-1.746.388-2.522.291-1.649 2.522-1.455 2.522-4.656 0-1.94-.582-4.268-.582-6.401 0-1.164.097-2.328.29-3.492.97-1.067 1.359-1.455 1.359-2.134 0-.388-.194-.776-.388-1.552-2.716 3.88-5.432 7.372-7.663 11.445-1.552 2.813-4.753 8.342-6.305 8.342-3.006 0-.484-4.365-2.521-5.529-.388-.194-.485-1.067-.485-1.358 0-1.067 1.164-1.358 1.164-2.037 0-.97-1.067-1.552-1.067-2.521 0-4.268.873-8.245.873-12.804 0-.485-.194-1.067-.194-1.552 0-1.164.679-2.037 1.067-3.298-.485 0-.873.194-1.358.194-.097 0-.291 0-.485-.194zm-2.231 17.75c.097-.872-.194-1.842.873-2.327.388 0 .582 1.455.582 1.94 0 .776-.388 2.424-1.552 2.424-.097 0-.194-.194-.194-.29l.29-1.746zm14.258 10.282c-.388-.194-.97 0-.97-.776.194-.388.291-.679.776-.679s.873.291.873.776c0 .776 0 .679-.679.679zm.873-3.977c-.291.485-.485.582-.776.582-.29-.194-.582-.388-.582-.582 0-.485.194-.679.485-.679s.582.485.873.68zm2.23-5.626c-.096 0-.096.097-.193.097-.194 0-.291-.29-.291-.484 0-.097.097-.291.29-.291.098 0 .195.388.195.678zm-5.14 11.64c0 .29 0 .485-.29.485-.195 0-.195-.388-.195-.582.097-.097.194-.194.291-.194.097.097.194.194.194.291zm2.425-9.797.291-.582c0 .097.194.194.194.291-.097.194-.194.291-.291.485 0-.097-.097-.097-.194-.194zm-10.572-25.315.097.097c-1.261.388-1.843.29-2.231 2.424-.291-.194-.68-.388-.873-.776-.485.97-.388 2.231-.388 3.395 0 .194.29.485.582.485.29 0 .679-.388 1.067-.679l-.097.097c0-1.358 2.328-1.746 2.328-3.491 0-.485-.194-.97-.485-1.552zm19.496 6.401c.485.291 1.067.873 1.649.873 1.357 0 2.327-2.813 2.327-4.365 0-.194-.194-.29-.388-.29-1.94 0-2.036 2.812-3.588 3.782zm21.533-19.399c2.037-.679 2.522-.679 2.522-2.813 0-.194-.388-.388-.485-.388-1.358.097-2.91.97-2.91 2.425 0 .582.485.776.873.776zm-13.289 11.446c.388 0 1.358-1.164 1.358-1.552 0-.291-.29-.68-.679-.68-.679 0-1.067.874-1.067 1.262s0 .582.388.97zm-35.306 11.154c0 1.164-.097 1.746.29 1.746.195-.097.292-.388.292-.485 0-.485-.291-.679-.582-1.26zm32.881-8.535c.097-.097.097-.194.097-.291s-.194-.291-.485-.291c-.194 0-.29.097-.388.29 0 .195.097.389.194.583zm-7.953 10.863c-.388 0-.68.291-.68.485s.292.388.777.388c.388 0 .679-.194.679-.485s-.291-.388-.776-.388zm17.168-21.533c.097 0 .097.097.194.097.194 0 .388-.388.388-.582s-.194-.485-.388-.485-.485.194-.485.485c0 .097.194.291.29.485zm-2.328 1.649c.291 0 .679.29.97.29a.417.417 0 0 0 .388-.387c-.194-.291-.388-.388-.679-.388s-.485.291-.679.485zm-.097-.194.097.194c-.388.194-.97.582-.97.873 0 .097.097.194.291.194.388 0 .485-.873.582-1.261zm-15.325 23.958c0-.097 0-.194-.097-.291 0 .097-.194.097-.194.194s.097.194.097.29c.097-.096.194-.096.194-.193zm-22.503-8.245c-.194.097-.776 0-1.067.291.194.097.388.388.485.388.388 0 .582-.29.582-.679zm.776-1.067c-.291.388-.485.68-.776 1.067l.097.097c.29-.388.582-.679.679-1.164zm-.776 6.887-.097.097c.097 0 .097 0 .194-.097h-.194zm99.226-22.697c.097.388.097.873.097 1.26 0 1.456-.388 2.91-.388 4.366 0 .388.097.873.097 1.26 0 3.493-.97 7.275-.97 10.864 0 1.455.291 2.91.291 4.365 0 1.26-.097 2.716-.097 3.977 0 .776.291 1.455.291 2.134 0 .776-.194 1.455-.29 2.134 0 5.043 1.94 6.304 2.133 8.244.194 1.358 2.91 3.104 4.947 3.104 5.82 0 6.79-9.408 9.408-12.61.873-1.066.388-2.812 1.261-4.073 1.552-2.231 2.425-4.656 3.686-7.08 1.746-2.523 4.365-5.336 5.238-7.76 0-.97-.97-.97-1.649-.97-2.716 0-4.268 3.491-5.335 5.722-2.134 2.813-3.782 5.917-5.334 9.02-1.261 2.523-4.947 10.476-6.305 10.476-.97 0-1.164-2.618-1.164-3.88 0-.872.194-1.745.582-2.618.873-2.037.97-4.171 1.067-6.402 0-.388-.097-.873-.097-1.26 0-2.426 1.455-4.366 1.455-6.5 0-1.164-.097-2.23-.097-3.394 0-3.59 1.552-5.432 1.552-10.282 0-6.693-1.455-7.566-7.372-7.566-2.134 0-3.395 1.746-4.947 2.813-6.304 4.462-11.445 10.476-16.004 16.78-.97 1.358-1.94 3.395-3.395 4.171-1.067 0-1.26-2.91-1.26-5.916 0-7.76.775-10.67.775-17.363 0-3.976-5.044-4.073-7.76-4.073-1.357 0-2.133 13.385-2.424 16.489-.194 2.037-.485 4.17-.485 6.207 0 2.62 1.358 4.753 1.358 7.47 0 5.625 4.85 8.535 8.438 8.535 6.79 0 8.342-5.529 10.185-11.349.388-1.164.582-2.425 1.649-3.104.097-1.164 1.455-1.552 1.649-2.715.194-1.164 5.722-10.476 9.214-10.476z"/><path d="m534.64 72.26c.484-.582.775-1.552 1.066-2.134.582.097.776.388.776.68 0 .484-.582 1.163-.582 1.648 1.746-1.358 2.716-3.298 2.716-5.044 0-.485-.097-.873-.194-1.358-2.231 1.261-3.977 2.134-6.11 3.007.678.776.872 1.552.872 2.328 0 1.552-1.358 3.298-1.358 3.783 0 .388.68.776.68 1.067 0 .776-1.359 3.007-2.038 5.432-1.26.776-2.328 2.134-2.328 3.977 0 .485.097.97.291 1.552 0 .872-.679 1.551-1.26 1.551-3.298 0-5.917-1.745-5.917-5.043 0-5.044 4.655-10.96 4.655-16.975 0-.485-.097-.873-.097-1.357 3.492-.485 3.783-4.171 5.82-6.111.194 2.23 1.067 3.88 1.067 5.82 0 .29-.097.678-.097.97 1.843-1.843 4.753-.195 6.402-2.134-1.164-.582-2.425-.873-3.298-1.164-.097-.776 1.164-.776 1.649-.873.29-.97.776-2.328.776-2.813 0-2.813 0-5.141-.291-7.76 0-2.716.873-3.88 3.686-5.14.388.581.582 1.163.582 1.745 0 .68-.194 1.358-.582 2.231.97.68 1.746 1.358 1.746 2.522 0 .485-.388 1.067-.388 1.649 0 1.94 1.358 3.589 2.037 5.626.29.29 1.164.97 1.649 1.94.775.776.193 2.134 1.163 2.134.776 0 1.94-.68 2.91-.68-.679.874-.776 1.553-.776 2.135 0 1.066 1.65 2.812 2.62 2.812.387 0 1.066-.873 1.648-.873 1.261 0 .485 3.104 2.231 3.104.97 0 2.037-.388 2.91-.388 3.395-.29 5.14-1.94 5.14-5.237.97 0 1.553-.291 2.814-.291 0-1.261-.194-2.62-.194-3.395 0-1.261.194-2.134.485-3.395.582.582.872 1.067 1.163 1.455.68-2.134.68-4.268 1.843-6.11.194-.195.485-.68.485-1.165s-.485-.97-.485-1.26c0-.486.97-.68 1.455-.68.388 0 .68.194 1.358.388 0-2.91 3.104-3.2 3.104-4.753 0-1.455-1.94-2.521-3.492-2.521-4.17 0-4.17 4.85-6.692 4.85v.387c0 1.552-1.552 1.843-2.037 2.62-1.552 2.909-3.395 5.237-4.947 8.05-.873 1.164-1.94 2.91-3.492 3.977-2.619-2.231-4.365-6.79-4.365-10.573 0-1.455.291-2.813.776-3.88 3.201-.097 5.917-1.552 7.76-3.88 3.007-3.782 7.275-10.087 7.275-12.803 0-1.94-1.552-5.626-3.686-6.79-2.037-1.067-3.783-2.037-6.014-2.037-4.753 0-9.603 4.753-11.445 8.827-.194.194-.388.679-.388 1.067 0 .582.776 1.261.776 1.746 0 .29-4.074 5.917-4.753 5.917-.873-.388-1.746-.582-2.62-.582-1.842 0-3.685.873-5.237 1.94-.29.194-.679.29-1.067.29-.582 0-1.164-.193-1.746-.29-2.134-1.164-4.365-1.455-6.692-1.455-2.134 0-3.977.679-5.82.679-4.559 0-3.201-3.007-4.365-7.663 0-2.23 1.843-5.238 2.716-7.566 1.649-4.364 6.305-8.341 10.766-10.96 0 1.843.194 3.589.194 5.238 0 1.067-.194 2.134-.194 3.2 0 3.783 1.843 6.208 5.626 6.5 0-.389.097-.777.097-1.165 0-1.26-.29-2.619-.29-3.977 0-2.521 2.909-7.274 2.909-9.99 0-3.686-7.469-6.79-10.282-6.79-1.842 0-3.685.776-5.334 1.65-3.88 2.036-9.215 8.34-9.215 9.893 0 .679.291 1.358.873 2.037-.873.485-2.134.679-2.328 1.551-1.358 2.231-1.26 5.626-1.94 8.924 1.164.582 1.164 5.626 3.104 8.536 2.425 3.685 7.08 5.528 11.252 5.528 1.358 0 2.716-1.164 4.073-1.164 1.455 0 3.298 1.261 3.298 2.91 0 .485-.29 1.067-.679 1.65-2.522 2.327-2.134 5.625-5.14 8.244-2.813 3.007-3.59 9.7-6.305 13.385-1.358 3.492-2.231 6.402-2.231 9.02 0 4.269 1.843 6.694 6.693 11.543.97 0 1.455-.873 2.134-.873.29 0 .582.194.97.68-.485.193-1.261.581-1.552 1.163 1.067 1.067 2.133 1.65 3.006 1.65 1.261 0 2.328-.874 3.201-2.62 0-.97 2.134-1.164 2.134-2.91 0-.679-.097-1.358-.097-2.036.97-.097 1.65-.582 2.231-1.067-1.26 0-1.94-.388-3.395-.68.97-.581 1.455-1.26 2.134-1.454-.679-.388-1.164-.68-1.843-.68 0-.29 0-.29.291-.581 1.261.29 2.813.582 4.656.873 1.843-1.261 1.649-3.59 2.716-5.82a2.685 2.685 0 0 0 -1.261-.291c-.485 0-.97.097-1.455.097-.776 0-1.358-.194-1.649-1.261 2.134-.388 2.134-.388 3.298-2.522-1.164.582-1.94 1.261-2.716 1.455l-.582-.485c.582-.582 1.358-1.26 2.134-2.134h-1.552zm17.264-30.165c.582-1.746 1.261-3.201 1.843-4.85 1.067-3.298 2.813-9.409 6.208-9.409.776 1.552 1.164 2.813 1.164 3.88 0 2.231-3.201 4.85-3.201 6.11 0 .195 0 .292.097.389 0 1.067-4.074 3.007-5.529 4.268-.29-.388-.29-.388-.582-.388zm-15.713 37.537c-.388.873-.776 1.26-1.261 1.26-1.067 0-1.067-1.066-1.26-2.618.97.679 1.745 1.067 2.521 1.358zm95.056-46.461c.097.388.097.873.097 1.26 0 1.456-.388 2.91-.388 4.366 0 .388.097.873.097 1.26 0 3.493-.97 7.275-.97 10.864 0 1.455.29 2.91.29 4.365 0 1.26-.096 2.716-.096 3.977 0 .776.29 1.455.29 2.134 0 .776-.193 1.455-.29 2.134 0 5.043 1.94 6.304 2.134 8.244.194 1.358 2.91 3.104 4.946 3.104 5.82 0 6.79-9.408 9.409-12.61.873-1.066.388-2.812 1.26-4.073 1.553-2.231 2.426-4.656 3.687-7.08 1.746-2.523 4.364-5.336 5.237-7.76 0-.97-.97-.97-1.649-.97-2.715 0-4.267 3.491-5.334 5.722-2.134 2.813-3.783 5.917-5.335 9.02-1.261 2.523-4.947 10.476-6.305 10.476-.97 0-1.164-2.618-1.164-3.88 0-.872.194-1.745.582-2.618.873-2.037.97-4.171 1.067-6.402 0-.388-.097-.873-.097-1.26 0-2.426 1.455-4.366 1.455-6.5 0-1.164-.097-2.23-.097-3.394 0-3.59 1.552-5.432 1.552-10.282 0-6.693-1.455-7.566-7.372-7.566-2.133 0-3.394 1.746-4.946 2.813-6.305 4.462-11.446 10.476-16.005 16.78-.97 1.358-1.94 3.395-3.394 4.171-1.067 0-1.261-2.91-1.261-5.916 0-7.76.776-10.67.776-17.363 0-3.976-5.044-4.073-7.76-4.073-1.358 0-2.134 13.385-2.425 16.489-.194 2.037-.485 4.17-.485 6.207 0 2.62 1.358 4.753 1.358 7.47 0 5.625 4.85 8.535 8.439 8.535 6.79 0 8.341-5.529 10.184-11.349.388-1.164.582-2.425 1.65-3.104.096-1.164 1.454-1.552 1.648-2.715.194-1.164 5.723-10.476 9.215-10.476z"/><path d="m654.526 33.753c.194.194 1.357 5.432 1.454 5.82 0 1.649-.97 3.492-.97 4.558 0 .68.873 1.455.873 1.94 0 .873-1.94 1.455-1.94 4.365 0 .776.486 1.552.486 2.328s-.776 1.261-.776 1.843c0 .679.679 1.067.679 1.843 0 2.425-1.261 4.85-1.261 7.372 0 1.746.776 3.491.776 5.237 0 .776-.097 1.552-.097 2.231 0 .485 0 .97.194 1.358-.194.776-.485 1.455-.485 2.231 0 .97.776 1.649.776 2.91 0 1.26 1.26 2.037 1.26 2.91 0 .679-.678 1.455-.678 2.23 0 .292.096.583.096.874 0 .388-.096.873-.096 1.26 0 1.844 1.066 3.59 1.066 5.432 0 1.455 1.552 3.298 3.201 3.298 4.171 0 3.783-2.425 3.783-3.977 0-1.358-1.067-2.618-1.067-3.88 0-2.036-.097-4.752-1.26-6.304-.583-.68-.68-2.134-.68-3.201 0-.679.194-1.455.194-2.134 0-.776-.388-1.455-.388-2.23 0-3.59 1.164-8.633 2.522-8.633.68 0 1.94.582 2.91.582 2.328 0 12.027-2.813 12.027-5.044 0-1.261 3.007-1.067 3.59-3.007.29-2.425 4.364-4.462 5.431-7.469.679-2.134 2.231-4.074 3.589-5.916.776-1.067.388-2.813 1.26-3.686.97-1.65 1.262-5.238 1.262-7.08 0-.777-.291-1.456-.485-2.135l-2.134-2.813c-1.164-.097-1.746-1.552-2.328-1.552-1.067-.485-2.23-.873-3.492-.873-6.887 0-14.161 7.178-16.586 10.476-1.261 1.746-3.104 5.626-4.753 5.626-.582 0-1.164-.194-1.746-.485.097.29.097.679.194.97 0 .388-.29.388-.29.388-.098 0-.098 0-.098-.097 0-1.358 1.261-2.231 1.261-3.104 0-.291-.388-.776-.388-1.164 0-2.231 1.261-4.559 1.261-6.11 0-4.657 2.813-7.664 2.813-11.058 0-3.783-3.298-5.626-5.82-5.626-2.425 0-2.91 3.783-2.91 5.82 0 1.067.194 2.328.388 3.588-.873 1.358-1.552 1.843-1.552 3.201s.388 2.62.388 3.977c0 1.358-.097 2.716-1.454 2.91zm16.877 3.395c3.88-1.261 7.856-7.469 12.124-7.469 1.067 0 1.65 0 1.65 2.134s-.874 4.268-1.068 6.305c-.679 6.983-5.626 13.191-7.856 15.422-3.298 2.134-7.566 5.14-11.64 5.14-.873 0-1.358-.484-1.358-1.454 0-9.312 4.462-12.125 6.014-15.81.097-.388.29-.776.582-.873 1.26-.68 1.552-1.843 1.552-3.395zm-11.155 6.887c-.097.775-.776 1.745-1.26 1.745-.098 0-.195-.194-.195-.29.097-.583.485-1.746 1.261-1.746.097.097.097.194.194.29zm-2.813 3.88-.29.581c-.098-.194-.292-.388-.292-.582s.194-.388.291-.582l.291.582zm-.097 23.86c-.097.097-.194.291-.29.388-.098-.097-.195-.194-.195-.29.097-.195.194-.292.194-.486.097.097.194.291.291.388zm67.897-16.974c.097 1.552-.097 3.589.582 4.947 2.037 4.268 2.328 10.572 10.185 10.572 4.559 0 12.803-8.244 14.452-9.99 1.455-1.455 9.215-9.603 9.7-9.7 1.067-2.328 5.625-4.268 5.625-6.208 0-.872-.776-1.066-1.649-1.066-3.685 0-11.348 6.886-14.84 10.669-2.23 2.425-11.348 8.827-12.512 8.827-2.522 0-3.492-7.76-3.492-11.349 0-4.365 1.94-8.147 2.813-12.124 2.619-4.753 7.565-11.446 11.445-11.446.388 0 .68.194.68.68-.098 1.066-.292 2.133-.292 3.297 0 1.455 1.067 3.395 2.522 3.395 2.813 0 4.074-7.372 4.074-9.99 0-3.88-10.379-5.335-10.379-5.335-1.067 0-4.461 1.746-5.14 3.588-.485 1.164-2.716.388-3.007 1.746s-1.65 1.552-2.037 2.813c-.582 1.746-2.231 3.007-3.201 4.753-1.843 3.395-4.074 8.633-4.074 10.767 0 3.685-1.455 7.274-1.455 11.154z"/><path d="m760.833 48.496c-.194.776-.582 2.037-.582 2.91 0 .485.485 1.067.485 1.65 0 .193-.097.29-.097.387-1.261 1.552-1.65 4.85-1.65 6.693 0 1.649.389 3.007.389 4.365 0 .97-.194 1.745-.194 2.618 0 3.201.873 6.5 3.298 6.5 3.685 0 5.431-8.44 5.334-8.245 1.746-3.104 1.65-6.693 3.007-9.991 2.813-6.693 2.134-8.827 3.783-11.252.97-1.454 1.455-3.103 2.134-4.655 1.843-4.56 6.79-12.125 10.67-14.453.096 0 .096-.097.193-.097 1.455 0 .291 11.737 4.365 11.737 1.455 0 .97-2.91 2.716-4.171 2.813-2.037 3.589-3.492 3.589-7.178 0-3.491-1.455-8.73-6.693-8.73-3.298 0-7.565 3.978-7.953 5.53-.291 1.26-3.007 3.685-4.656 5.916.097-.873.29-1.358.29-1.94-.581-2.134-.872-5.625-3.88-5.625-1.066 0-2.036.388-3.103.388-.194 0-.485-.097-.679-.097-.776 0-3.298 4.85-3.783 6.013-1.552 3.395-4.074 7.178-4.268 10.767 0 1.067-1.066 2.91-1.066 4.559 0 .485 0 .873.097 1.358-.776.775-1.358 4.267-2.522 4.461zm12.415-8.147h-.291l.194-.291.097.29zm31.524-4.559c.097.388.194.776.194 1.164s-.194.29-.291.388a.74.74 0 0 1 -.194-.485c0-.388.194-.776.388-1.067-1.455 2.037-1.067 5.14-2.425 6.79-1.261 1.551-1.164 6.013-1.164 7.953 0 .776.679 1.552.679 2.231 0 .485-.485 1.067-.485 1.552 0 .679.388 1.261.388 1.843 0 .388-.291.776-.291 1.067 0 .776 1.067 1.552 1.067 2.425 0 .485-.194.97-.194 1.358 0 .29 1.164 3.686 2.813 4.559.388.193.679.678.873 1.163 2.036 3.007 4.655 2.91 8.438 3.298a30.562 30.562 0 0 1 1.843-1.164c.291.194.679.291.97.291 1.649 0 8.05-7.856 9.603-8.438 1.648-.582 3.103-4.947 5.82-6.305 1.066 0 1.551-1.552 1.551-2.328 0-.97 5.238-5.335 5.238-5.335.97-.679 3.88-1.843 3.88-3.103 0-.776-.97-1.067-1.552-1.067-3.007 0-7.08 4.655-8.148 5.625-5.044 4.462-10.184 8.536-15.422 12.804-1.067.873-2.813 2.037-4.268 2.037-3.492 0-3.783-8.148-3.783-12.513 0-1.552.097-4.268 1.94-4.268 1.358 0 2.716.388 4.074.388 5.432 0 10.96-5.043 12.027-7.08.485-.97 1.164-1.552 1.843-2.231.776-.873 1.164-2.425 2.134-2.91.97-.679 1.358-1.649 1.358-2.813 0-.582-.097-1.164-.097-1.843 0-.29.097-.679.097-.97 0-5.238-8.244-8.923-13.288-8.923-1.552 0-2.231 1.455-3.492 1.94-2.134.872-3.395 2.812-4.85 4.267-.679 2.134-3.977 3.007-4.85 5.723-.485 1.552-1.454 2.813-2.424 3.977zm9.214 4.85c-1.552-.194-2.037-.194-2.037-.873 0-2.62 5.141-12.9 11.543-12.9 1.94 0 2.328 2.715 2.328 4.364 0 6.208-8.342 8.827-11.834 9.409z"/><path d="m837.653 57.517c1.843.194 1.164 1.164 1.455 1.843 0 4.074 3.589 6.208 6.79 6.208 4.558 0 4.364-.097 9.214-8.924 1.94-4.074 5.335-11.543 6.014-11.737 2.425-.679 2.037-2.23 2.619-4.655.194-.873 3.686-3.977 3.88-3.977 1.26-.68 1.552-1.552 2.23-3.104 2.425 0 1.262-2.425 2.813-2.716.776-.097 1.455-.29 2.328-.485.097 1.067.582 2.037.582 3.201-.97 1.843-1.455.582-1.455 7.372 0 .485 0 1.067.097 1.552 0 1.067-1.455 2.812-1.552 4.752-.485 8.245-1.357 17.848-1.357 25.413 0 1.358 1.454 1.843 1.454 3.492 0 .97-.097 1.94-.097 2.91.097 1.649-.097 3.395 1.358 4.656.485.29.097 1.455 1.067 2.328 1.65 1.552 2.813 3.103 5.238 3.103 1.455 0 3.783 0 4.559-1.745.679-1.552 2.037-2.716 2.328-4.753 0-2.037 0-5.335.776-6.79.97-1.26.388-2.813 1.067-3.783 1.26-2.425 1.746-6.013 2.425-8.73.679-2.812 2.23-5.431 2.618-8.341 0-3.007 5.141-9.215 5.82-10.282a.74.74 0 0 0 .194-.484c0-.97-1.455-1.455-2.134-1.455-2.037 0-4.85 3.2-5.528 5.722-.097.388-.291.97-.68 1.261-2.715 2.522-2.23 4.947-3.2 8.633-.291 1.26-1.261 1.358-1.358 2.328-1.261 3.492-2.231 6.983-3.298 10.766 0 2.134-2.231 9.409-3.686 9.409-.29 0-1.358-3.395-1.358-3.783s.097-.873.194-1.26c-.582-.583-.776-1.262-.776-1.94 0-.583.097-1.359.097-2.038 0-1.455-.097-2.91-.097-4.462 0-4.461.97-9.408.97-13.87 0-2.037 1.552-4.074 1.552-5.529 0-7.274 2.813-14.646 2.813-20.95 0-4.56-3.007-5.626-5.14-5.626-2.426 0-3.396 1.648-5.045 2.327-3.006 1.164-4.655 4.268-7.177 5.53-2.231-2.91-4.462-4.948-8.924-4.948-6.693 0-7.856 4.85-10.572 8.73-3.395 4.85-4.074 8.05-5.238 11.058-1.164 3.006-2.425 6.207-2.425 9.408-.097.873-.679 1.261-1.455 1.455zm26.383-26.674c0 .291.097.485.097.68 0 .969-1.455 2.909-1.455 2.909-2.134 1.649-3.298 4.17-5.335 5.82-1.067.873-1.843 2.037-2.522 3.104-1.358 2.23-6.401 9.02-6.79 9.02-.484 0-.581-.29-.581-.679 1.455-7.372 6.013-16.78 12.124-20.854.679-.388 1.261-.582 2.037-.582.679 0 1.746.291 2.425.582z"/><path d="m903.028 42.58c.388-2.037.582-2.716.582-5.044 0-1.455 1.261-2.522 1.261-3.977.29-2.425.485-4.753.776-7.178-.097-.097-.097-.29-.097-.388 0-.679.485-1.358.485-2.037 0-.194 0-.485-.097-.679.679-1.551 7.178-4.752 7.08-4.752 3.201-.68 5.432-.68 8.536-2.62.291-.193.68-.29 1.067-.29.291 0 .68.097.97.097.582 0 1.261-.68 1.649-.68.485 0 1.552.583 1.746.583.388 0 2.23-1.746 2.23-2.425 0-.291-.096-.582-.29-.97-.097.194-.291.291-.388.291-1.067 0 .485-3.783-3.492-3.783-1.358 0-1.164 1.746-2.037 1.746-.582 0-1.067-1.26-1.649-1.26-1.164 0-3.007 2.424-4.365 2.424-2.91 0-6.595 1.843-8.147 2.425-.97-.388-.776-1.649-1.65-2.231 0 .097.098.194.098.291.097-.097.097-.194.097-.194-.097 0-.194 0-.291.097.582-.388.776-1.746.776-3.104 0-4.17-.776-6.402-3.977-6.402-2.522 0-3.395 1.455-4.559 3.686.097.873.194 1.746.194 2.62 0 3.588-.29 9.99-2.813 10.572-3.782.582-6.595 3.297-6.886 3.297-1.067 0-3.201 1.746-5.238 2.134-1.164.194-3.88.194-3.88 1.261 0 2.91 5.335 3.783 6.402 3.783 4.947 0 5.529-2.813 8.438-2.813.291-.194.291-.582.97-.582.68 0 1.164.485 1.164 1.067 0 .388-.097.776-.097 1.164 0 .582.582 1.067.582 1.65 0 .29-.097.581-.194.775-.97 1.843-1.26 3.686-1.26 5.529 0 .582.096 1.26.096 1.746 0 .776-.29 1.552-.29 2.23 0 .97.29 1.94.29 2.91 0 .292-.097.582-.097.776 0 .388.97.97.97 1.552 0 .776-1.358.97-1.358 1.552 0 .776 1.65.194 1.65 1.65v-.098c.775-.388.872-1.164.872-2.037 0-.679-.097-1.358-.097-2.037 0-1.745 1.455-2.91 1.455-3.297 0-.873-1.358-2.134-1.358-2.91s.582-1.261 1.455-2.134c-.097.097-.097.194-.097.194.097-.097.097 0 .097-.194 0 0-.097.097-.194.097 0 1.164.582 4.753 1.455 4.753.388 0 .68-.097.873-.097.485 0 .485.29.582 1.26zm-2.328-8.44c-.097-.097-.194-.097-.194-.097 0-.097 0-.291.097-.291s.194 0 .194.097-.097.194-.097.291zm.485-4.268c.291 0 .291.194.291.291l-.194.194c-.097 0-.194-.097-.194-.29 0-.098.097-.195.097-.195zm-.097 17.653.097-.097c0 .873-.29 1.746-.29 2.62 0 .387.193.775.193 1.163 0 1.261-1.164 2.716-1.164 3.104 0 .679.97 1.552.97 2.522 0 .873-.679 1.649-.679 2.619 0 .194.097.485.097.679 0 .388-.29 1.26-.582 1.26-1.067 0-1.26-2.424-1.26-4.85 0-.969.096-1.842.096-2.618 0-1.358-.097-2.328-.388-2.328-.485.194-.485.68-.485 1.067 0 .388.097.68.097 1.067 0 .776-.29 1.552-.679 2.134h.097c.68.29.97.485.97.873 0 .873-.873 1.552-1.26 1.552-.68 0-.97-.68-1.359-.68-.97 0-.97 3.299-1.649 4.56 0 .194.485.582.68.582.775 0 1.26-3.007 2.036-3.007.388 0 .485.388.68.679 0 1.067-1.262 2.134-1.262 3.492 0 .388.097.776.097 1.164 0 1.842-2.134 4.946-2.134 5.334 0 1.164 1.164 3.88 1.164 4.268 0 .291-.097.68-.097.97 0 1.649 2.231 3.977 2.231 6.014-.097.29-.097.485-.097.679 0 1.164 2.328 3.492 4.85 3.492.68 0 3.298-.388 3.783-1.843 0-.194.582-.388.873-.388.194 0 .388.097.582.097s3.007-2.62 3.104-3.007c.29-1.067 1.455-.873 1.455-1.94.29-1.358.388-1.455 1.94-1.455.097 0 .485.291.679.291.484 0 .29-1.746.387-2.522.291-1.649 2.522-1.455 2.522-4.656 0-1.94-.582-4.268-.582-6.401 0-1.164.097-2.328.291-3.492.97-1.067 1.358-1.455 1.358-2.134 0-.388-.194-.776-.388-1.552-2.716 3.88-5.431 7.372-7.662 11.445-1.552 2.813-4.753 8.342-6.305 8.342-3.007 0-.485-4.365-2.522-5.529-.388-.194-.485-1.067-.485-1.358 0-1.067 1.164-1.358 1.164-2.037 0-.97-1.067-1.552-1.067-2.521 0-4.268.873-8.245.873-12.804 0-.485-.194-1.067-.194-1.552 0-1.164.68-2.037 1.067-3.298-.485 0-.873.194-1.358.194-.097 0-.29 0-.485-.194zm-2.23 17.75c.096-.872-.195-1.842.872-2.327.388 0 .582 1.455.582 1.94 0 .776-.388 2.424-1.552 2.424-.097 0-.194-.194-.194-.29l.291-1.746zm14.258 10.282c-.388-.194-.97 0-.97-.776.194-.388.29-.679.776-.679.485 0 .873.291.873.776 0 .776 0 .679-.68.679zm.873-3.977c-.291.485-.485.582-.776.582-.291-.194-.582-.388-.582-.582 0-.485.194-.679.485-.679.29 0 .582.485.873.68zm2.23-5.626c-.097 0-.097.097-.194.097-.194 0-.29-.29-.29-.484 0-.097.096-.291.29-.291.097 0 .194.388.194.678zm-5.14 11.64c0 .29 0 .485-.291.485-.194 0-.194-.388-.194-.582.097-.097.194-.194.29-.194.098.097.195.194.195.291zm2.425-9.797.29-.582c0 .097.195.194.195.291-.097.194-.194.291-.291.485 0-.097-.097-.097-.194-.194zm-10.574-25.314.097.097c-1.26.388-1.843.29-2.23 2.424-.292-.194-.68-.388-.874-.776-.485.97-.388 2.231-.388 3.395 0 .194.291.485.582.485s.68-.388 1.067-.679l-.097.097c0-1.358 2.328-1.746 2.328-3.491 0-.485-.194-.97-.485-1.552zm19.496 6.401c.485.291 1.067.873 1.65.873 1.357 0 2.327-2.813 2.327-4.365 0-.194-.194-.29-.388-.29-1.94 0-2.037 2.812-3.589 3.782zm21.533-19.399c2.037-.679 2.522-.679 2.522-2.813 0-.194-.388-.388-.485-.388-1.358.097-2.91.97-2.91 2.425 0 .582.485.776.873.776zm-13.288 11.446c.388 0 1.358-1.164 1.358-1.552 0-.291-.291-.68-.68-.68-.678 0-1.066.874-1.066 1.262s0 .582.388.97zm-35.307 11.154c0 1.164-.097 1.746.291 1.746.194-.097.291-.388.291-.485 0-.485-.29-.679-.582-1.26zm32.882-8.535c.097-.097.097-.194.097-.291s-.194-.291-.485-.291c-.194 0-.291.097-.388.29 0 .195.097.389.194.583zm-7.954 10.863c-.388 0-.679.291-.679.485s.291.388.776.388c.388 0 .68-.194.68-.485s-.292-.388-.777-.388zm17.168-21.533c.097 0 .097.097.194.097.194 0 .388-.388.388-.582s-.194-.485-.388-.485-.485.194-.485.485c0 .097.194.291.291.485zm-2.327 1.649c.29 0 .679.29.97.29a.417.417 0 0 0 .387-.387c-.193-.291-.387-.388-.678-.388s-.485.291-.68.485zm-.097-.194.097.194c-.388.194-.97.582-.97.873 0 .097.097.194.29.194.389 0 .486-.873.583-1.261zm-15.326 23.958c0-.097 0-.194-.097-.291 0 .097-.194.097-.194.194s.097.194.097.29c.097-.096.194-.096.194-.193zm-22.503-8.245c-.194.097-.776 0-1.067.291.194.097.388.388.485.388.388 0 .582-.29.582-.679zm.776-1.067c-.29.388-.485.68-.776 1.067l.097.097c.291-.388.582-.679.68-1.164zm-.776 6.887-.097.097c.097 0 .097 0 .194-.097h-.194z"/><path d="m936.782 47.43c0 2.133.388 4.267.388 6.498 0 2.813 2.522 6.305 3.395 8.245 1.455 3.298 5.626 6.886 8.827 6.886 2.23 0 6.014-1.358 7.08-3.298.486-1.454 2.425-2.812 2.425-3.88.194-1.26 1.843-2.618 2.62-4.267.484-.873.193-2.037 1.066-2.619 1.067-.873 2.037-3.783 2.328-4.462.485-2.037 3.298-4.365 3.298-5.82 0-1.163-1.067-1.745-2.328-1.745-1.552 0-2.91 1.163-3.298 3.103-1.358 6.305-4.946 10.573-9.117 15.52-.194.194-.388.194-.582.194-2.522 0-2.62-10.67-2.62-12.513 0-.194 0-.388.098-.485.679-1.746.097-3.589.776-5.334.194-2.328.485-4.656.485-7.081 0-3.492-1.746-10.67-4.365-11.446-1.455-.388-3.298-1.067-4.656-1.067-3.007 0-5.82 21.145-5.82 23.57zm7.275-37.44c0 1.745.68 4.752 3.007 4.752 2.522 0 3.686-2.619 3.686-4.85 0-2.425-2.619-2.328-4.85-2.813-1.649 0-1.843 1.94-1.843 2.91z"/><path d="m969.955 72.163c3.395 0 4.753-.485 6.984-5.723 2.23-5.334 4.267-12.221 7.177-15.81 2.522-3.104 2.328-6.886 6.79-7.856 7.76-1.65 15.52-5.432 22.794-5.917.97-.097 1.746-1.164 1.746-2.037 0-1.261-2.328-2.619-3.783-2.619-6.499 0-13.191 1.358-19.496 2.91-4.656 1.164-11.543 1.649-11.543 4.365 0 .776-.194 1.649-.194 2.425 0 .582.194 1.26.194 1.843 0 1.357-.388 2.618-1.454 3.685-.582.582-1.067 2.425-1.843 3.395-1.067 1.358-3.88 7.08-4.753 7.08-.485 0-.485-.97-.485-1.454 0-10.088 1.94-19.69 1.94-30.554 0-2.134-4.753-2.813-6.984-2.813-.97 0-1.164 1.455-1.164 2.328s.582 1.843.582 2.716c0 1.358-.582 3.395-.679 5.044-.485 6.208-.582 12.415-1.358 18.526 0 .582-.097 1.164-.097 1.746 0 5.723.097 11.834 2.813 16.877.873.582 1.746 1.164 2.813 1.843z"/><path d="m1008.656 47.43c0 2.133.388 4.267.388 6.498 0 2.813 2.522 6.305 3.395 8.245 1.455 3.298 5.626 6.886 8.827 6.886 2.23 0 6.013-1.358 7.08-3.298.485-1.454 2.425-2.812 2.425-3.88.194-1.26 1.843-2.618 2.619-4.267.485-.873.194-2.037 1.067-2.619 1.067-.873 2.037-3.783 2.328-4.462.485-2.037 3.298-4.365 3.298-5.82 0-1.163-1.067-1.745-2.328-1.745-1.552 0-2.91 1.163-3.298 3.103-1.358 6.305-4.947 10.573-9.118 15.52-.194.194-.388.194-.582.194-2.521 0-2.618-10.67-2.618-12.513 0-.194 0-.388.097-.485.679-1.746.097-3.589.775-5.334.194-2.328.485-4.656.485-7.081 0-3.492-1.745-10.67-4.364-11.446-1.455-.388-3.298-1.067-4.656-1.067-3.007 0-5.82 21.145-5.82 23.57zm7.275-37.44c0 1.745.679 4.752 3.007 4.752 2.522 0 3.686-2.619 3.686-4.85 0-2.425-2.62-2.328-4.85-2.813-1.65 0-1.843 1.94-1.843 2.91z"/><path d="m1044.932 42.58c.388-2.037.582-2.716.582-5.044 0-1.455 1.261-2.522 1.261-3.977.291-2.425.485-4.753.776-7.178-.097-.097-.097-.29-.097-.388 0-.679.485-1.358.485-2.037 0-.194 0-.485-.097-.679.68-1.551 7.178-4.752 7.081-4.752 3.2-.68 5.432-.68 8.536-2.62.29-.193.679-.29 1.067-.29.29 0 .679.097.97.097.582 0 1.26-.68 1.648-.68.485 0 1.552.583 1.746.583.388 0 2.231-1.746 2.231-2.425 0-.291-.097-.582-.29-.97-.098.194-.292.291-.389.291-1.067 0 .485-3.783-3.492-3.783-1.357 0-1.163 1.746-2.036 1.746-.582 0-1.067-1.26-1.65-1.26-1.163 0-3.006 2.424-4.364 2.424-2.91 0-6.596 1.843-8.148 2.425-.97-.388-.776-1.649-1.649-2.231 0 .097.097.194.097.291.097-.097.097-.194.097-.194-.097 0-.194 0-.29.097.581-.388.775-1.746.775-3.104 0-4.17-.776-6.402-3.977-6.402-2.521 0-3.394 1.455-4.558 3.686.097.873.194 1.746.194 2.62 0 3.588-.291 9.99-2.813 10.572-3.783.582-6.596 3.297-6.887 3.297-1.067 0-3.2 1.746-5.238 2.134-1.164.194-3.88.194-3.88 1.261 0 2.91 5.335 3.783 6.402 3.783 4.947 0 5.529-2.813 8.439-2.813.29-.194.29-.582.97-.582.679 0 1.164.485 1.164 1.067 0 .388-.097.776-.097 1.164 0 .582.582 1.067.582 1.65 0 .29-.097.581-.194.775-.97 1.843-1.261 3.686-1.261 5.529 0 .582.097 1.26.097 1.746 0 .776-.291 1.552-.291 2.23 0 .97.29 1.94.29 2.91 0 .292-.096.582-.096.776 0 .388.97.97.97 1.552 0 .776-1.358.97-1.358 1.552 0 .776 1.649.194 1.649 1.65v-.098c.776-.388.873-1.164.873-2.037 0-.679-.097-1.358-.097-2.037 0-1.745 1.455-2.91 1.455-3.297 0-.873-1.358-2.134-1.358-2.91s.582-1.261 1.455-2.134c-.097.097-.097.194-.097.194.097-.097.097 0 .097-.194 0 0-.097.097-.194.097 0 1.164.582 4.753 1.455 4.753.388 0 .679-.097.873-.097.484 0 .484.29.581 1.26zm-2.327-8.439c-.097-.097-.194-.097-.194-.097 0-.097 0-.291.097-.291s.194 0 .194.097-.097.194-.097.291zm.485-4.268c.29 0 .29.194.29.291l-.193.194c-.097 0-.194-.097-.194-.29 0-.098.097-.195.097-.195zm-.097 17.653.097-.097c0 .873-.291 1.746-.291 2.62 0 .387.194.775.194 1.163 0 1.261-1.164 2.716-1.164 3.104 0 .679.97 1.552.97 2.522 0 .873-.68 1.649-.68 2.619 0 .194.098.485.098.679 0 .388-.291 1.26-.582 1.26-1.067 0-1.261-2.424-1.261-4.85 0-.969.097-1.842.097-2.618 0-1.358-.097-2.328-.388-2.328-.485.194-.485.68-.485 1.067 0 .388.097.68.097 1.067 0 .776-.291 1.552-.68 2.134h.098c.679.29.97.485.97.873 0 .873-.873 1.552-1.261 1.552-.68 0-.97-.68-1.358-.68-.97 0-.97 3.299-1.65 4.56 0 .194.486.582.68.582.776 0 1.26-3.007 2.037-3.007.388 0 .485.388.679.679 0 1.067-1.261 2.134-1.261 3.492 0 .388.097.776.097 1.164 0 1.842-2.134 4.946-2.134 5.334 0 1.164 1.164 3.88 1.164 4.268 0 .291-.097.68-.097.97 0 1.649 2.23 3.977 2.23 6.014-.096.29-.096.485-.096.679 0 1.164 2.328 3.492 4.85 3.492.678 0 3.297-.388 3.782-1.843 0-.194.582-.388.873-.388.194 0 .388.097.582.097s3.007-2.62 3.104-3.007c.291-1.067 1.455-.873 1.455-1.94.291-1.358.388-1.455 1.94-1.455.097 0 .485.291.679.291.485 0 .29-1.746.388-2.522.29-1.649 2.522-1.455 2.522-4.656 0-1.94-.582-4.268-.582-6.401 0-1.164.097-2.328.29-3.492.97-1.067 1.359-1.455 1.359-2.134 0-.388-.194-.776-.388-1.552-2.716 3.88-5.432 7.372-7.663 11.445-1.552 2.813-4.753 8.342-6.305 8.342-3.006 0-.485-4.365-2.521-5.529-.388-.194-.485-1.067-.485-1.358 0-1.067 1.164-1.358 1.164-2.037 0-.97-1.067-1.552-1.067-2.521 0-4.268.873-8.245.873-12.804 0-.485-.194-1.067-.194-1.552 0-1.164.679-2.037 1.066-3.298-.484 0-.872.194-1.357.194-.097 0-.291 0-.485-.194zm-2.231 17.75c.097-.872-.194-1.842.873-2.327.388 0 .582 1.455.582 1.94 0 .776-.388 2.424-1.552 2.424-.097 0-.194-.194-.194-.29l.29-1.746zm14.258 10.282c-.388-.194-.97 0-.97-.776.194-.388.291-.679.776-.679s.873.291.873.776c0 .776 0 .679-.679.679zm.873-3.977c-.291.485-.485.582-.776.582-.291-.194-.582-.388-.582-.582 0-.485.194-.679.485-.679s.582.485.873.68zm2.23-5.626c-.096 0-.096.097-.193.097-.194 0-.291-.29-.291-.484 0-.097.097-.291.29-.291.098 0 .195.388.195.678zm-5.14 11.64c0 .29 0 .485-.29.485-.195 0-.195-.388-.195-.582.097-.097.194-.194.291-.194.097.097.194.194.194.291zm2.425-9.797.291-.582c0 .097.194.194.194.291-.097.194-.194.291-.291.485 0-.097-.097-.097-.194-.194zm-10.573-25.315.097.097c-1.26.388-1.842.29-2.23 2.424-.291-.194-.68-.388-.873-.776-.485.97-.388 2.231-.388 3.395 0 .194.29.485.582.485.29 0 .679-.388 1.067-.679l-.097.097c0-1.358 2.327-1.746 2.327-3.491 0-.485-.194-.97-.485-1.552zm19.497 6.401c.485.291 1.067.873 1.649.873 1.357 0 2.327-2.813 2.327-4.365 0-.194-.194-.29-.388-.29-1.94 0-2.036 2.812-3.588 3.782zm21.533-19.399c2.037-.679 2.521-.679 2.521-2.813 0-.194-.388-.388-.484-.388-1.358.097-2.91.97-2.91 2.425 0 .582.485.776.873.776zm-13.289 11.446c.388 0 1.358-1.164 1.358-1.552 0-.291-.29-.68-.679-.68-.679 0-1.067.874-1.067 1.262s0 .582.388.97zm-35.306 11.154c0 1.164-.097 1.746.29 1.746.195-.097.292-.388.292-.485 0-.485-.291-.679-.582-1.26zm32.881-8.535c.097-.097.097-.194.097-.291s-.194-.291-.485-.291c-.194 0-.29.097-.388.29 0 .195.097.389.194.583zm-7.953 10.863c-.388 0-.68.291-.68.485s.292.388.777.388c.388 0 .679-.194.679-.485s-.291-.388-.776-.388zm17.168-21.533c.097 0 .097.097.194.097.194 0 .388-.388.388-.582s-.194-.485-.388-.485-.485.194-.485.485c0 .097.194.291.29.485zm-2.328 1.649c.291 0 .679.29.97.29a.417.417 0 0 0 .388-.387c-.194-.291-.388-.388-.679-.388s-.485.291-.679.485zm-.097-.194.097.194c-.388.194-.97.582-.97.873 0 .097.097.194.291.194.388 0 .485-.873.582-1.261zm-15.325 23.958c0-.097 0-.194-.097-.291 0 .097-.194.097-.194.194s.097.194.097.29c.097-.096.194-.096.194-.193zm-22.503-8.245c-.194.097-.776 0-1.067.291.194.097.388.388.485.388.388 0 .582-.29.582-.679zm.776-1.067c-.291.388-.485.68-.776 1.067l.097.097c.29-.388.582-.679.679-1.164zm-.776 6.887-.097.097c.097 0 .097 0 .194-.097h-.194z"/><path d="m1105.555 92.532c-.485.097-1.261.097-1.552.485l.097-.194c.194-.194.388-.29.582-.29s.29.096.485.096c1.067 0 1.649-5.14 1.746-5.14 0-.776-.582-1.65-.582-2.425 0-.291.097-.485.097-.68 0-.387-.097-.581-.097-.872 0-1.164 1.358-1.65 1.358-1.94.097-.873.485-1.65.485-2.62 0-.581-.388-1.163-1.067-1.163-1.843 0-.97 1.649-1.94 2.328 0-.388-.194-.776-.194-1.164 0-2.425 3.395-1.552 3.589-3.492.097-.776.194-1.552.194-2.328 0-.97-.097-1.843-.388-2.813-.097.097-.68.388-.873.388-.291-.097-.388-.873-.388-1.067 0-.97 1.358-.97 1.552-1.649 2.424-6.304 3.88-8.244 6.886-10.281 2.037-1.358 3.492-3.007 6.402-4.656 3.492-2.522 7.566-4.753 11.445-6.79 2.522-1.358 2.91-2.23 5.917-2.23.873-.097 1.455-1.067 1.455-1.94 0-2.328-4.17-3.007-5.238-3.007-1.358 0-6.692 2.328-6.886 2.619-.68 1.067-1.746 1.26-2.813 1.649-2.328.775-2.62.97-5.141 3.2-1.94.97-4.462 2.813-5.529 2.813-.582 0-.873-.388-.873-.97 0-1.746.097-3.88.873-5.334 1.65-3.007 1.455-8.73 2.425-12.416.097-1.649.291-3.395.291-5.044 0-1.94-4.074-3.976-6.402-3.976-3.006 0-5.82 3.394-6.886 4.267-1.358 1.067-.873 2.62-2.231 3.104-1.164.388-.291 1.746-1.843 2.425-1.94.873-3.589 1.94-4.947 3.589-1.164 1.358-5.238 5.14-6.499 5.14-.582 0-.679-.581-.679-1.26 0-4.365 1.746-9.312 1.746-13.87 0-2.038-2.134-5.723-5.916-5.723-4.365 0-5.335 17.07-5.335 17.362-.097.97-.194 2.037-.194 3.007 0 6.498 1.94 13.676 10.281 14.452 1.552-1.455 3.783-2.91 4.074-4.559.291-1.843 2.328-4.947 2.62-5.14 1.551-.873 4.267-4.56 4.267-4.365.388-1.746 3.2-3.88 3.2-3.88.777 0 .97-2.231 2.62-2.231 1.649 0 1.746 4.559 1.746 6.499 0 2.425-1.94 2.813-1.94 7.08 0 .194.194.388.388.388.388 0 1.164-.679 1.358-.679s.194.388.194.582c0 1.455-1.746 2.716-2.037 4.462-.68 3.589-1.94 7.857-4.56 9.99-1.551 1.262-1.939 3.008-3.588 3.977-1.649.582-2.91 4.268-4.17 6.208-.486.776-1.165 1.358-1.65 2.037-2.619 4.17-3.976 7.08-4.752 8.827-.776 1.746-1.455 5.14-2.134 6.11-3.104 5.335-3.007 9.894-3.007 12.61 0 3.007.097 5.917 2.522 7.274 2.23 1.261 2.522 3.492 7.08 3.492 5.723 0 10.96-6.79 10.96-11.251 2.038-2.91 1.068-6.693 3.396-9.02zm-.485-4.656c0-.097-.097-.097-.097-.194s.097-.097.194-.097.097.097.097.194c-.485.485-.388 1.843-1.455 1.843-.097-.097-.194-.194-.194-.29 0-1.165.194-1.359 1.455-1.456zm-16.878 14.259c.485-3.395 1.164-10.476 2.425-11.93.194-.292.388-.68.388-.97.097-3.007 3.104-7.566 5.335-10.185.291-.291.485-.582.582-.873 1.067-2.037 5.14-7.954 5.82-7.954.776 0 .873 1.067.873 1.358 0 3.686-1.552 8.342-1.552 10.864 0 .485.194.97.194 1.455 0 2.522-1.65 4.267-1.65 6.013 0 .291.098.68.098 1.067 0 1.843-1.649 2.134-1.649 4.074 0 .485.582.776.776 1.261-2.037 2.328-3.2 6.014-5.917 7.08-1.26.486-2.037 1.94-3.395 1.94-1.843 0-2.328-1.357-2.328-3.2zm16.78-18.623c.292.194.486.29.68.388 0 .485-.68.776-.97.873-.097 0-.582-.291-.582-.388 0-.291.582-.582.873-.873zm.389-9.7c-.291.097-.291.291-.582.291-.194 0-.291-.097-.291-.194 0-.194.194-.388.388-.388.194.097.29.194.485.291zm-3.59 20.37c0 .193 0 .484-.193.484a.209.209 0 0 1 -.194-.194c0-.194.097-.29.388-.29zm-3.491 7.274c0 .097-.097.29-.194.29s-.194-.096-.194-.29c0-.097.097-.194.194-.291.097.097.097.194.194.29zm9.409-33.56c-.194 0-.388 0-.388-.292 0-.097.194-.194.194-.194.194 0 .194.388.194.485zm-6.208 23.181s.097-.097.194-.097.097.097.194.194c-.097.097-.194.097-.291.194l-.097-.29zm2.522 1.746h.097l-.097.194zm29.971-27.353c0 2.716 1.261 6.014 4.268 6.014 2.134 0 4.171-2.619 4.171-4.656 0-3.103-3.395-4.655-6.014-4.655s-2.23 2.425-2.425 3.298zm-1095.081 91.547-.072.072c.072-.144.216-.432.216-.648 0-.288-.288-.648-.288-1.008 0-1.44.864-3.456 1.08-5.04.288-2.016 0-4.104.36-6.192 0-1.296-.144-2.664-.144-3.96 0-2.088.288-4.176.288-6.192 0-.432-.144-.864-.144-1.368 0-2.808.432-10.224 2.088-10.584 1.8-.36 4.176-1.008 5.4-1.944.36.072.72.36 1.08.36.432 0 .648-.648 1.296-.648 2.736-.576 9.72-.288 9.72-3.456 0-2.304-4.464-2.304-5.472-2.304-4.32 0-8.28 1.368-12.528 1.8-.792.072-1.584.432-2.448.432-1.224 0-2.304-.864-3.528-.864-.792 0-2.52.36-2.52 1.008 0 .36.144.576.144.864 0 .936-10.44 3.024-11.52 3.24-.936.216-1.8.36-2.736.36-.72 0-1.584-.432-2.304-.432-.792 0-1.512.72-1.512 1.368 0 2.304 3.096 3.816 3.312 3.96 1.368.648 2.592 1.008 4.176 1.008 3.312 0 7.488-2.304 9.936-2.304.288 0 1.008.432 1.008 2.376 0 .576-.36 1.008-.36 1.584 0 .648.504 1.44.504 2.16 0 .792-.792 1.584-.792 2.376 0 .432.072.864.072 1.296 0 1.8-.432 3.672-.432 5.4 0 .864.936 1.656.936 2.304-.72 1.44-.864 2.088-.864 4.248 0 .792.216 1.584.216 2.232 0 1.008-.288 1.944-.288 2.952.216 2.592-.216 6.048 1.44 7.848l-.144-.216c0 .072-.072.072-.072.144l.072.072.144-.144a.778.778 0 0 0 -.216.504c0 1.152.648 2.952.864 4.104-.072.216-.144.432-.144.648 0 1.08 1.224 1.944 1.944 2.664 1.728-.432 3.6-.648 3.6-2.52 0-1.008-.936-2.448-.936-2.88 0-.648-.432-1.152-.432-1.656 0-.288.216-.576.216-.936 0-.504-.432-.936-.432-1.368 0-.144.072-.216.144-.216h-.072c.072-.144.072-.36.144-.504zm-.144.504c.072.216.072.432.072.648 0-.216 0-.432-.072-.648zm.144-.504-.072.072zm59.545-12.312c.072-.288.144-.504.144-.72 0-.72-.504-1.08-1.152-1.08-2.088 0-3.672 3.888-5.688 5.688-.648 1.872-.648 3.672-1.8 5.328-1.584 2.304-2.736 4.464-3.168 7.056-.216 1.008-1.224.864-1.224 1.944 0 .432-2.808 4.32-3.384 4.32-.36 0-1.512-3.672-1.512-3.6 0-1.152.648-2.952.72-4.248.288-4.752.936-9.72.936-14.4 0-3.6-.216-4.68-4.176-6.12-.288-.072-.576-.144-.792-.144-.864 0-1.656 1.008-2.664 1.224-1.296.288-2.376.864-2.808 2.232 0 1.008-1.8 1.008-2.088 1.296-1.08.936-3.816 4.968-4.896 4.968-.648 0-.576-.72-.576-.936 0-3.672 2.664-6.192 2.664-9.936 0-1.944 1.656-5.328 1.728-5.328 0-.792.36-1.584.36-2.376 0-.216-.072-.432-.072-.648 0-.72.936-1.512.936-2.664 0-2.16 1.872-7.056 1.728-6.912 1.512-2.016 2.52-6.192 2.52-7.128 0-1.872-1.728-1.656-3.6-2.448-.288-.144-.504-.216-.648-.216-.504 0-2.304 8.28-2.232 8.568l.072-.072c-.936 1.512-.864 2.736-1.152 4.392-.648 1.656-1.656 3.6-1.656 5.184 0 .288.072.504.072.72 0 .576-.504 1.08-.504 1.584 0 .288.432.72.432 1.08s-.936 1.008-1.152 1.872c-.36 1.296-1.008 2.664-1.008 3.816 0 .288.072.72.072 1.008 0 1.368-1.08 2.448-1.08 3.96s-1.08 3.024-1.08 4.104c0 .288.216.72.216 1.008 0 .936-.792 1.656-.792 2.592 0 .288.072.504.072.792 0 .72-.504 1.224-.504 1.872 0 3.096-2.088 5.616-2.088 8.568 0 1.368 3.96 3.168 5.04 3.168.36 0 2.88-6.552 3.384-8.208.72-2.52 4.464-6.984 4.392-6.84.072-.72 4.536-4.824 6.048-4.824.504 0 .648 3.024.648 4.032 0 .648-.36 1.368-.36 2.088 0 1.224.792 2.52.792 3.816 0 1.656-.072 3.24-.072 4.752 0 .792-.432 1.44-.432 2.088 0 .864.648 1.512.864 2.592.648 6.12 3.384 7.776 6.192 7.776 1.512 0 2.304-4.464 2.736-4.896.792-.792.432-2.16.936-3.024.72-1.296.72-2.808 1.584-4.032.72-1.08 1.512-2.736 1.512-4.176 0-.36 1.728-2.448 2.304-3.528 1.44-2.736 3.168-4.68 5.256-6.984z"/><path d="m94.766 141.609c.072.288.144.576.144.864s-.144.216-.216.288a.55.55 0 0 1 -.144-.36c0-.288.144-.576.288-.792-1.08 1.512-.792 3.816-1.8 5.04-.936 1.152-.864 4.464-.864 5.904 0 .576.504 1.152.504 1.656 0 .36-.36.792-.36 1.152 0 .504.288.936.288 1.368 0 .288-.216.576-.216.792 0 .576.792 1.152.792 1.8 0 .36-.144.72-.144 1.008 0 .216.864 2.736 2.088 3.384.288.144.504.504.648.864 1.512 2.232 3.456 2.16 6.264 2.448.432-.288.864-.576 1.368-.864.216.144.504.216.72.216 1.224 0 5.976-5.832 7.128-6.264 1.224-.432 2.304-3.672 4.32-4.68.792 0 1.152-1.152 1.152-1.728 0-.72 3.887-3.96 3.887-3.96.72-.504 2.88-1.368 2.88-2.304 0-.576-.72-.792-1.152-.792-2.231 0-5.255 3.456-6.047 4.176-3.744 3.312-7.56 6.336-11.448 9.504-.792.648-2.088 1.512-3.168 1.512-2.592 0-2.808-6.048-2.808-9.288 0-1.152.072-3.168 1.44-3.168 1.008 0 2.016.288 3.024.288 4.032 0 8.136-3.744 8.928-5.256.36-.72.864-1.152 1.368-1.656.576-.648.864-1.8 1.584-2.16.72-.504 1.008-1.224 1.008-2.088 0-.432-.072-.864-.072-1.368 0-.216.072-.504.072-.72 0-3.888-6.12-6.624-9.864-6.624-1.152 0-1.656 1.08-2.592 1.44-1.584.648-2.52 2.088-3.6 3.168-.504 1.584-2.952 2.232-3.6 4.248-.36 1.152-1.08 2.088-1.8 2.952zm6.84 3.6c-1.152-.144-1.512-.144-1.512-.648 0-1.944 3.816-9.576 8.568-9.576 1.44 0 1.728 2.016 1.728 3.24 0 4.608-6.192 6.552-8.784 6.984zm67.463.144c.072 0 .144 0 .144.072 0-.072-.072-.072-.072-.072v.072c2.376-1.656 2.376-6.264 4.68-7.2.864-.36.792-1.08 1.008-2.16.144.072.216.072.36.072.504 0 .792-.576 1.296-.576.216 0 .36.216.36.36 0 .288-.072.576-.072.864 0 1.008.216 2.016.216 3.024 0 1.296-.072 2.664-.072 3.816 0 1.44-2.088 5.184-2.088 8.424 0 .504.36 1.296.504 1.728-.504.504-1.08.72-1.08 1.296 0 .432.36.864.36 1.368 0 1.224-1.08 2.88-1.08 4.536 0 1.584.072 3.672-.216 5.112-.216.648-.576 1.224-.576 1.944 0 1.224 1.512 2.232 1.512 3.888 0 .144 0 .288-.072.432.936 1.944 1.584 3.888 3.816 3.888 1.224 0 3.816-.504 4.176-1.584.576-1.584 2.016-2.448 2.232-4.248.216-1.872 1.152-3.456 1.152-5.472 0-.144-.072-.288-.072-.432 0-1.08 2.088-2.736 2.304-3.888.504-2.952 2.592-4.752 4.176-7.056 0-.072.072-.144.072-.216 0-.576-.72-1.152-1.224-1.152-3.312 0-3.816 1.872-3.816 3.528 0 .648-1.008 1.224-1.368 1.944-.936 2.736-3.24 6.336-4.608 7.92-1.224-1.008-1.44-1.656-1.44-2.52 0-2.88.648-5.472.648-8.568.72-.936.864-1.008.864-2.304 0-.36.504-.648.648-1.08.216-1.08.432-2.232.648-3.384-.072-.216-.144-.504-.144-.72 0-.72.72-1.44.72-2.016 0-.504-.648-.648-.648-1.296 0-1.008.864-1.512.864-2.232.216-2.52 0-5.616.864-7.488a1.72 1.72 0 0 0 .144-.648c0-3.168-1.44-4.536-3.168-4.536-4.896 0-6.48 4.968-8.064 6.048-1.152.792-.792 2.52-2.16 2.88-1.296.36-3.384 4.608-3.312 4.464-1.8 3.528-4.176 5.328-4.536 6.552-.288.792-1.656 3.384-2.376 3.384-.144 0-.288-.144-.288-.216.072-1.944.36-3.96.36-5.832 0-1.224-.792-2.304-1.944-2.304-.936 0-1.8.072-2.664.144-3.096 2.808-5.544 5.616-7.848 9.288-.288.432-.864 1.296-1.512 1.296-.288 0-.432-.576-.432-.648 0-.504.504-1.008.504-1.512s-.648-2.016-.648-3.024c.72-1.08.36-2.376.792-3.528.936-2.664.792-5.472 2.016-8.856.072-.216.072-.36.072-.576 0-1.944-3.168-2.88-4.752-3.24-.576 0-1.44.216-1.512.936-.288 2.376-.792 4.752-1.368 7.128 0 .432.288 1.08.288 1.584 0 2.304-1.296 3.456-1.44 5.04-.072 1.224-.144 2.448-.144 3.672 0 1.584.072 3.24.072 4.68 0 2.16 2.088 5.4 2.376 5.616.36.36.792.576 1.224.576 3.96 0 4.104-2.808 6.048-4.896.432-.432.504-1.44.864-1.944 1.152-1.584 2.88-5.976 3.888-5.976 1.152 0 .36 9.72 3.744 10.8 1.008.36 2.016.864 2.808.792 1.872 0 3.024-2.736 3.024-3.528 0-1.08.72-1.368 1.08-2.592.576-1.8 1.08-4.104 2.088-5.472.432-.72 2.016-2.664 2.016-3.528 0-.144-.144-.36-.216-.648zm12.528 9.288a1.036 1.036 0 0 1 -.144-.216c-.288.144-.504.144-.504.648.504 0 .432-.144.648-.432z"/><path d="m225.013 138.657c-3.816.216-7.272 1.728-10.872 2.952-.216.072-.432.144-.648.144-1.224 0-1.44-1.512-1.728-2.664-.792-2.664-3.456-5.616-5.472-6.336-1.728-.576-3.312-2.088-5.256-2.088h-3.456c-4.752 0-7.632.648-7.632 8.136 0 2.088 2.016 5.04 2.016 6.552 0 1.656-1.512 5.256-1.512 6.192 0 1.368-.576 2.664-.576 4.104 0 7.416 5.112 11.232 5.112 11.232 1.44 1.008 3.168 1.296 4.68 1.728.936-.576 3.528-2.088 4.032-2.088.072 0 .072.072.072.072 5.112-5.112 5.4-6.84 6.408-8.136 1.08-1.368-.144-3.6 1.44-4.464.288-.288 1.44-6.048 1.44-6.48.288-2.088.792-2.52 3.528-3.888 2.088-1.008 4.392-2.16 6.84-2.376 2.304-.216 3.024-.864 3.024-1.44 0-.648-.936-1.296-1.296-1.296a.155.155 0 0 0 -.144.144zm-15.913 10.656c-.216 1.296-.072 3.312-.864 3.816-1.296.864-4.104 9.504-7.632 9.504-1.872 0-2.808-2.952-2.808-4.392 0-.864.504-2.016.504-2.952 0-.36-.072-.72-.072-1.08 0-2.232.504-4.392 1.944-4.752 2.808 0 5.4-1.08 7.992-2.016 1.08 0 .792.936.936 1.872zm-10.44-16.2c4.968 0 7.992 4.752 9.792 8.64.216.432.216.864.216 1.296 0 1.656-4.176 2.448-6.048 2.664-.36 0-.936-.072-.936-.648 0-.648 1.008-1.944 1.008-2.592 0-1.656-4.392-2.736-4.824-2.88-.504-.216-.864-.288-1.08-.288-.504 0-.72.432-1.728 1.44 0 .072-.072.072-.144.072-.936 0-.936-1.512-.936-2.16 0-2.088 1.296-5.04 3.528-5.328.432-.072.864-.144 1.152-.216z"/><path d="m222.061 151.04c-.144.577-.432 1.513-.432 2.16 0 .36.36.793.36 1.225 0 .144-.072.216-.072.288-.936 1.152-1.224 3.6-1.224 4.968 0 1.224.288 2.232.288 3.24 0 .72-.144 1.296-.144 1.944 0 2.376.648 4.824 2.448 4.824 2.736 0 4.032-6.264 3.96-6.12 1.296-2.304 1.224-4.968 2.232-7.416 2.088-4.968 1.584-6.552 2.808-8.352.72-1.08 1.08-2.304 1.584-3.456 1.368-3.384 5.04-9 7.92-10.728.072 0 .072-.072.144-.072 1.08 0 .216 8.712 3.24 8.712 1.08 0 .72-2.16 2.016-3.096 2.088-1.512 2.664-2.592 2.664-5.328 0-2.592-1.08-6.48-4.968-6.48-2.448 0-5.616 2.952-5.904 4.104-.216.936-2.232 2.736-3.456 4.392.072-.648.216-1.008.216-1.44-.432-1.584-.648-4.176-2.88-4.176-.792 0-1.512.288-2.304.288-.144 0-.36-.072-.504-.072-.576 0-2.448 3.6-2.808 4.464-1.152 2.52-3.024 5.328-3.168 7.992 0 .792-.792 2.16-.792 3.384 0 .36 0 .648.072 1.008-.576.576-1.008 3.168-1.872 3.312l.576.432zm9.216-6.047h-.216l.144-.216zm23.4-3.384c.072.288.144.576.144.864s-.144.216-.216.288a.55.55 0 0 1 -.144-.36c0-.288.144-.576.288-.792-1.08 1.512-.792 3.816-1.8 5.04-.936 1.152-.864 4.464-.864 5.904 0 .576.504 1.152.504 1.656 0 .36-.36.792-.36 1.152 0 .504.288.936.288 1.368 0 .288-.216.576-.216.792 0 .576.792 1.152.792 1.8 0 .36-.144.72-.144 1.008 0 .216.864 2.736 2.088 3.384.288.144.504.504.648.864 1.512 2.232 3.456 2.16 6.264 2.448.432-.288.864-.576 1.368-.864.216.144.504.216.72.216 1.224 0 5.976-5.832 7.128-6.264 1.224-.432 2.304-3.672 4.32-4.68.792 0 1.152-1.152 1.152-1.728 0-.72 3.888-3.96 3.888-3.96.72-.504 2.88-1.368 2.88-2.304 0-.576-.72-.792-1.152-.792-2.232 0-5.256 3.456-6.048 4.176-3.744 3.312-7.56 6.336-11.448 9.504-.792.648-2.088 1.512-3.168 1.512-2.592 0-2.808-6.048-2.808-9.288 0-1.152.072-3.168 1.44-3.168 1.008 0 2.016.288 3.024.288 4.032 0 8.136-3.744 8.928-5.256.36-.72.864-1.152 1.368-1.656.576-.648.864-1.8 1.584-2.16.72-.504 1.008-1.224 1.008-2.088 0-.432-.072-.864-.072-1.368 0-.216.072-.504.072-.72 0-3.888-6.12-6.624-9.864-6.624-1.152 0-1.656 1.08-2.592 1.44-1.584.648-2.52 2.088-3.6 3.168-.504 1.584-2.952 2.232-3.6 4.248-.36 1.152-1.08 2.088-1.8 2.952zm6.84 3.6c-1.152-.144-1.512-.144-1.512-.648 0-1.944 3.816-9.576 8.568-9.576 1.44 0 1.728 2.016 1.728 3.24 0 4.608-6.192 6.552-8.784 6.984zm58.392 38.52c-.36.072-.936.072-1.152.36l.072-.144c.144-.144.288-.216.432-.216s.216.072.36.072c.792 0 1.224-3.816 1.296-3.816 0-.576-.432-1.224-.432-1.8 0-.216.072-.36.072-.504 0-.288-.072-.432-.072-.648 0-.864 1.008-1.224 1.008-1.44.072-.648.36-1.224.36-1.944 0-.432-.288-.864-.792-.864-1.368 0-.72 1.224-1.44 1.728 0-.288-.144-.576-.144-.864 0-1.8 2.52-1.152 2.664-2.592.072-.576.144-1.152.144-1.728a6.96 6.96 0 0 0 -.288-2.088c-.072.072-.504.288-.648.288-.216-.072-.288-.648-.288-.792 0-.72 1.008-.72 1.152-1.224 1.8-4.68 2.88-6.12 5.112-7.632 1.512-1.008 2.592-2.232 4.752-3.456 2.592-1.872 5.616-3.528 8.496-5.04 1.872-1.008 2.16-1.656 4.392-1.656.648-.072 1.08-.792 1.08-1.44 0-1.728-3.096-2.232-3.888-2.232-1.008 0-4.968 1.728-5.112 1.944-.504.792-1.296.936-2.088 1.224-1.728.576-1.944.72-3.816 2.376-1.44.72-3.312 2.088-4.104 2.088-.432 0-.648-.288-.648-.72 0-1.296.072-2.88.648-3.96 1.224-2.232 1.08-6.48 1.8-9.216.072-1.224.216-2.52.216-3.744 0-1.44-3.024-2.952-4.752-2.952-2.232 0-4.32 2.52-5.112 3.168-1.008.792-.648 1.944-1.656 2.304-.864.288-.216 1.296-1.368 1.8-1.44.648-2.664 1.44-3.672 2.664-.864 1.008-3.888 3.816-4.824 3.816-.432 0-.504-.432-.504-.936 0-3.24 1.296-6.912 1.296-10.296 0-1.512-1.584-4.248-4.392-4.248-3.24 0-3.96 12.672-3.96 12.888-.072.72-.144 1.512-.144 2.232 0 4.824 1.44 10.152 7.632 10.728 1.152-1.08 2.808-2.16 3.024-3.384.216-1.368 1.728-3.672 1.944-3.816 1.152-.648 3.168-3.384 3.168-3.24.288-1.296 2.376-2.88 2.376-2.88.576 0 .72-1.656 1.944-1.656s1.296 3.384 1.296 4.824c0 1.8-1.44 2.088-1.44 5.256a.31.31 0 0 0 .288.288c.288 0 .864-.504 1.008-.504s.144.288.144.432c0 1.08-1.296 2.016-1.512 3.312-.504 2.664-1.44 5.832-3.384 7.416-1.152.936-1.44 2.232-2.664 2.952-1.224.432-2.16 3.168-3.096 4.608-.36.576-.864 1.008-1.224 1.512-1.944 3.096-2.952 5.256-3.528 6.552s-1.08 3.816-1.584 4.536c-2.304 3.96-2.232 7.344-2.232 9.36 0 2.232.072 4.392 1.872 5.4 1.656.936 1.872 2.592 5.256 2.592 4.248 0 8.136-5.04 8.136-8.352 1.512-2.16.792-4.968 2.52-6.696zm-.36-3.456c0-.072-.072-.072-.072-.144s.072-.072.144-.072.072.072.072.144c-.36.36-.288 1.368-1.08 1.368-.072-.072-.144-.144-.144-.216 0-.864.144-1.008 1.08-1.08zm-12.528 10.584c.36-2.52.864-7.776 1.8-8.856.144-.216.288-.504.288-.72.072-2.232 2.304-5.616 3.96-7.56.216-.216.36-.432.432-.648.792-1.512 3.816-5.904 4.32-5.904.576 0 .648.792.648 1.008 0 2.736-1.152 6.192-1.152 8.064 0 .36.144.72.144 1.08 0 1.872-1.224 3.168-1.224 4.464 0 .216.072.504.072.792 0 1.368-1.224 1.584-1.224 3.024 0 .36.432.576.576.936-1.512 1.728-2.376 4.464-4.392 5.256-.936.36-1.512 1.44-2.52 1.44-1.368 0-1.728-1.008-1.728-2.376zm12.456-13.824c.216.144.36.216.504.288 0 .36-.504.576-.72.648-.072 0-.432-.216-.432-.288 0-.216.432-.432.648-.648zm.288-7.2c-.216.072-.216.216-.432.216-.144 0-.216-.072-.216-.144a.31.31 0 0 1 .288-.288c.144.072.216.144.36.216zm-2.664 15.12c0 .144 0 .36-.144.36a.155.155 0 0 1 -.144-.144c0-.144.072-.216.288-.216zm-2.592 5.4c0 .072-.072.216-.144.216s-.144-.072-.144-.216c0-.072.072-.144.144-.216.072.072.072.144.144.216zm6.984-24.912c-.144 0-.288 0-.288-.216 0-.072.144-.144.144-.144.144 0 .144.288.144.36zm-4.608 17.208s.072-.072.144-.072.072.072.144.144c-.072.072-.144.072-.216.144zm1.872 1.296h.072l-.072.144z"/><path d="m375.42 138.657c-3.815.216-7.271 1.728-10.871 2.952-.216.072-.432.144-.648.144-1.224 0-1.44-1.512-1.728-2.664-.792-2.664-3.456-5.616-5.472-6.336-1.728-.576-3.312-2.088-5.256-2.088h-3.456c-4.752 0-7.632.648-7.632 8.136 0 2.088 2.016 5.04 2.016 6.552 0 1.656-1.512 5.256-1.512 6.192 0 1.368-.576 2.664-.576 4.104 0 7.416 5.112 11.232 5.112 11.232 1.44 1.008 3.168 1.296 4.68 1.728.936-.576 3.528-2.088 4.032-2.088.072 0 .072.072.072.072 5.112-5.112 5.4-6.84 6.408-8.136 1.08-1.368-.144-3.6 1.44-4.464.288-.288 1.44-6.048 1.44-6.48.288-2.088.792-2.52 3.528-3.888 2.088-1.008 4.392-2.16 6.84-2.376 2.304-.216 3.024-.864 3.024-1.44 0-.648-.936-1.296-1.296-1.296a.155.155 0 0 0 -.144.144zm-15.911 10.656c-.216 1.296-.072 3.312-.864 3.816-1.296.864-4.104 9.504-7.632 9.504-1.872 0-2.808-2.952-2.808-4.392 0-.864.504-2.016.504-2.952 0-.36-.072-.72-.072-1.08 0-2.232.504-4.392 1.944-4.752 2.808 0 5.4-1.08 7.992-2.016 1.08 0 .792.936.936 1.872zm-10.44-16.2c4.968 0 7.992 4.752 9.792 8.64.216.432.216.864.216 1.296 0 1.656-4.176 2.448-6.048 2.664-.36 0-.936-.072-.936-.648 0-.648 1.008-1.944 1.008-2.592 0-1.656-4.392-2.736-4.824-2.88-.504-.216-.864-.288-1.08-.288-.504 0-.72.432-1.728 1.44 0 .072-.072.072-.144.072-.936 0-.936-1.512-.936-2.16 0-2.088 1.296-5.04 3.528-5.328.432-.072.864-.144 1.152-.216z"/><path d="m396.661 139.665c.072.288.072.648.072.936 0 1.08-.288 2.16-.288 3.24 0 .288.072.648.072.936 0 2.592-.72 5.4-.72 8.064 0 1.08.216 2.16.216 3.24 0 .936-.072 2.016-.072 2.952 0 .576.216 1.08.216 1.584 0 .576-.144 1.08-.216 1.584 0 3.744 1.44 4.68 1.584 6.12.144 1.008 2.16 2.304 3.672 2.304 4.32 0 5.04-6.984 6.984-9.36.648-.792.288-2.088.936-3.024 1.152-1.656 1.8-3.456 2.736-5.256 1.296-1.872 3.24-3.96 3.888-5.76 0-.72-.72-.72-1.224-.72-2.016 0-3.168 2.592-3.96 4.248-1.584 2.088-2.808 4.392-3.96 6.696-.936 1.872-3.672 7.776-4.68 7.776-.72 0-.864-1.944-.864-2.88 0-.648.144-1.296.432-1.944.648-1.512.72-3.096.792-4.752 0-.288-.072-.648-.072-.936 0-1.8 1.08-3.24 1.08-4.824 0-.864-.072-1.656-.072-2.52 0-2.664 1.152-4.032 1.152-7.632 0-4.968-1.08-5.616-5.472-5.616-1.584 0-2.52 1.296-3.672 2.088-4.68 3.312-8.496 7.776-11.88 12.456-.72 1.008-1.44 2.52-2.52 3.096-.792 0-.936-2.16-.936-4.392 0-5.76.576-7.92.576-12.888 0-2.952-3.744-3.024-5.76-3.024-1.008 0-1.584 9.936-1.8 12.24-.144 1.512-.36 3.096-.36 4.608 0 1.944 1.008 3.528 1.008 5.544 0 4.176 3.6 6.336 6.264 6.336 5.04 0 6.192-4.104 7.56-8.424.288-.864.432-1.8 1.224-2.304.072-.864 1.08-1.152 1.224-2.016s4.248-7.776 6.84-7.776zm59.76 0c.072.288.072.648.072.936 0 1.08-.288 2.16-.288 3.24 0 .288.072.648.072.936 0 2.592-.72 5.4-.72 8.064 0 1.08.216 2.16.216 3.24 0 .936-.072 2.016-.072 2.952 0 .576.216 1.08.216 1.584 0 .576-.144 1.08-.216 1.584 0 3.744 1.44 4.68 1.584 6.12.144 1.008 2.16 2.304 3.672 2.304 4.32 0 5.04-6.984 6.984-9.36.648-.792.288-2.088.936-3.024 1.152-1.656 1.8-3.456 2.736-5.256 1.296-1.872 3.24-3.96 3.888-5.76 0-.72-.72-.72-1.224-.72-2.016 0-3.168 2.592-3.96 4.248-1.584 2.088-2.808 4.392-3.96 6.696-.936 1.872-3.672 7.776-4.68 7.776-.72 0-.864-1.944-.864-2.88 0-.648.144-1.296.432-1.944.648-1.512.72-3.096.792-4.752 0-.288-.072-.648-.072-.936 0-1.8 1.08-3.24 1.08-4.824 0-.864-.072-1.656-.072-2.52 0-2.664 1.152-4.032 1.152-7.632 0-4.968-1.08-5.616-5.472-5.616-1.584 0-2.52 1.296-3.672 2.088-4.68 3.312-8.496 7.776-11.88 12.456-.72 1.008-1.44 2.52-2.52 3.096-.792 0-.936-2.16-.936-4.392 0-5.76.576-7.92.576-12.888 0-2.952-3.744-3.024-5.76-3.024-1.008 0-1.584 9.936-1.8 12.24-.144 1.512-.36 3.096-.36 4.608 0 1.944 1.008 3.528 1.008 5.544 0 4.176 3.6 6.336 6.264 6.336 5.04 0 6.192-4.104 7.56-8.424.288-.864.432-1.8 1.224-2.304.072-.864 1.08-1.152 1.224-2.016s4.248-7.776 6.84-7.776z"/><path d="m491.124 168.68c.36-.431.576-1.151.792-1.583.432.072.576.288.576.504 0 .36-.432.864-.432 1.224 1.296-1.008 2.016-2.448 2.016-3.744 0-.36-.072-.648-.144-1.008-1.656.936-2.952 1.584-4.536 2.232.504.576.648 1.152.648 1.728 0 1.152-1.008 2.448-1.008 2.808 0 .288.504.576.504.792 0 .576-1.008 2.232-1.512 4.032-.936.576-1.728 1.584-1.728 2.952 0 .36.072.72.216 1.152 0 .648-.504 1.152-.936 1.152-2.448 0-4.392-1.296-4.392-3.744 0-3.744 3.456-8.136 3.456-12.6 0-.36-.072-.648-.072-1.008 2.592-.36 2.808-3.096 4.32-4.536.144 1.656.792 2.88.792 4.32 0 .216-.072.504-.072.72 1.368-1.368 3.528-.144 4.752-1.584-.864-.432-1.8-.648-2.448-.864-.072-.576.864-.576 1.224-.648.216-.72.576-1.728.576-2.088 0-2.088 0-3.816-.216-5.76 0-2.016.648-2.88 2.736-3.816.288.432.432.864.432 1.296 0 .504-.144 1.008-.432 1.656.72.504 1.296 1.008 1.296 1.872 0 .36-.288.792-.288 1.224 0 1.44 1.008 2.664 1.512 4.176.216.216.864.72 1.224 1.44.576.576.144 1.584.864 1.584.576 0 1.44-.504 2.16-.504-.504.648-.576 1.152-.576 1.584 0 .792 1.224 2.088 1.944 2.088.288 0 .792-.648 1.224-.648.936 0 .36 2.304 1.656 2.304.72 0 1.512-.288 2.16-.288 2.52-.216 3.816-1.44 3.816-3.888.72 0 1.152-.216 2.088-.216 0-.936-.144-1.944-.144-2.52 0-.936.144-1.584.36-2.52.432.432.648.792.864 1.08.504-1.584.504-3.168 1.368-4.536.144-.144.36-.504.36-.864s-.36-.72-.36-.936c0-.36.72-.504 1.08-.504.288 0 .504.144 1.008.288 0-2.16 2.304-2.376 2.304-3.528 0-1.08-1.44-1.872-2.592-1.872-3.096 0-3.096 3.6-4.968 3.6v.288c0 1.152-1.152 1.368-1.512 1.944-1.152 2.16-2.52 3.888-3.672 5.976-.648.864-1.44 2.16-2.592 2.952-1.944-1.656-3.24-5.04-3.24-7.848 0-1.08.216-2.088.576-2.88 2.376-.072 4.392-1.152 5.76-2.88 2.232-2.808 5.4-7.488 5.4-9.504 0-1.44-1.152-4.176-2.736-5.04-1.512-.792-2.808-1.512-4.464-1.512-3.528 0-7.128 3.528-8.496 6.552-.144.144-.288.504-.288.792 0 .432.576.936.576 1.296 0 .216-3.024 4.392-3.528 4.392a4.752 4.752 0 0 0 -1.944-.432c-1.368 0-2.736.648-3.888 1.44a1.451 1.451 0 0 1 -.792.216c-.432 0-.864-.144-1.296-.216-1.584-.864-3.24-1.08-4.968-1.08-1.584 0-2.952.504-4.32.504-3.384 0-2.376-2.232-3.24-5.688 0-1.656 1.368-3.888 2.016-5.616 1.224-3.24 4.68-6.192 7.992-8.136 0 1.368.144 2.664.144 3.888 0 .792-.144 1.584-.144 2.376 0 2.808 1.368 4.608 4.176 4.824 0-.288.072-.576.072-.864 0-.936-.216-1.944-.216-2.952 0-1.872 2.16-5.4 2.16-7.416 0-2.736-5.544-5.04-7.632-5.04-1.368 0-2.736.576-3.96 1.224-2.88 1.512-6.84 6.192-6.84 7.344 0 .504.216 1.008.648 1.512-.648.36-1.584.504-1.728 1.152-1.008 1.656-.936 4.176-1.44 6.624.864.432.864 4.176 2.304 6.336 1.8 2.736 5.256 4.104 8.352 4.104 1.008 0 2.016-.864 3.024-.864 1.08 0 2.448.936 2.448 2.16 0 .36-.216.792-.504 1.224-1.872 1.728-1.584 4.176-3.816 6.12-2.088 2.232-2.664 7.2-4.68 9.936-1.008 2.592-1.656 4.752-1.656 6.696 0 3.168 1.368 4.968 4.968 8.568.72 0 1.08-.648 1.584-.648.216 0 .432.144.72.504-.36.144-.936.432-1.152.864.792.792 1.584 1.224 2.232 1.224.936 0 1.728-.648 2.376-1.944 0-.72 1.584-.864 1.584-2.16 0-.504-.072-1.008-.072-1.512.72-.072 1.224-.432 1.656-.792-.936 0-1.44-.288-2.52-.504.72-.432 1.08-.936 1.584-1.08-.504-.288-.864-.504-1.368-.504 0-.216 0-.216.216-.432.936.216 2.088.432 3.456.648 1.368-.936 1.224-2.664 2.016-4.32a1.993 1.993 0 0 0 -.936-.216c-.36 0-.72.072-1.08.072-.576 0-1.008-.144-1.224-.936 1.584-.288 1.584-.288 2.448-1.872-.864.432-1.44.936-2.016 1.08l-.432-.36c.432-.432 1.008-.936 1.584-1.584h-1.152zm12.816-22.391c.432-1.296.936-2.376 1.368-3.6.792-2.448 2.088-6.984 4.608-6.984.576 1.152.864 2.088.864 2.88 0 1.656-2.376 3.6-2.376 4.536 0 .144 0 .216.072.288 0 .792-3.024 2.232-4.104 3.168-.216-.288-.216-.288-.432-.288zm-11.664 27.864c-.288.648-.576.936-.936.936-.792 0-.792-.792-.936-1.944.72.504 1.296.792 1.872 1.008zm29.592-1.153c2.088-1.727 4.824-4.535 4.824-7.415 0-2.304-2.736-4.752-5.4-4.752-.936 0-1.296 1.872-1.296 2.736 0 1.224.648 1.872 1.584 3.384-.072 1.656-.288 3.168-.288 4.824 0 .576 0 .648.576 1.224zm89.352 1.729.649-.936c.072.288.936.36 1.224.36 1.8 0 2.232-3.24 2.592-4.464.36-.72.936-2.808.936-4.104.216-1.296.216-2.376.504-3.528 0-1.008-.36-1.728-.36-2.808 0-.648.288-2.376.504-3.816 0-.432.36-1.08.36-1.512 0-.36-.216-.792-.216-1.152 0-1.008.432-1.872.792-2.736.648-2.376 1.584-4.608 3.24-6.408.216-.288.288-.504.288-.72 0-1.008-1.728-1.656-2.592-1.656-2.664 0-3.24 3.744-4.536 6.84-.216-.216-.216-.432-.648-.648 0 .432-.144.936-.144 1.224s.576.36.576.576c0 .504-.432.216-.432 1.872.216.288-.576 1.44-.576 2.304 0 .216 0 .432.072.576 0 .36-.288.72-.504.936 0 1.368.216 2.736.216 4.104-.216.72-.216 1.584-.288 2.52.216.216.648.36.648.72 0 .144-.144.36-.36.576-.216-.216-.432-.288-.576-.288-.216 0-.288.144-.288.36 0 1.44.36 2.16.648 2.664-1.296 0-1.224 2.16-1.728 5.04-1.872-1.44-1.872-3.168-2.016-5.04h-.792c.072-.648.144-1.08.144-1.44 0-.936-.432-1.008-1.944-1.296 1.08-.72 1.8-1.368 1.8-2.016 0-.576-.072-1.08-.072-1.584 0-.432.144-.936.144-1.224 0-.36-.216-.504-.576-.504-.216 0-.504.072-.792.144.72-2.232 1.44-3.312 1.44-5.904 0-.432-.216-.792-.216-1.368 0-.864.36-1.44.36-2.304-.288-.288-.432-.648-.432-.936 0-.648.648-1.296.648-1.944-.504 0-.648 0-1.008.216.792-.864 2.088-2.16 2.088-2.592 0-.576-1.008-1.08-1.008-1.872 0-.216.072-.504.216-.792-.216.36 1.08-3.384 1.08-3.384 0-3.096-3.456-4.824-5.328-4.824-.144 0-4.824 1.656-5.544 4.032-.72 1.584-2.664 3.456-3.744 5.184-.72 1.08-1.224 3.312-2.664 4.032-.144-.936-.144-1.584-.432-2.52-.648-.216-.936-.504-.936-.792 0-.216.144-.432.432-.72.792-1.584.936-3.024 1.368-4.392 0-.288-.072-.576-.072-.936s.432-.864.432-1.224c0-.216-.144-.432-.144-.792-.216 0-.216 0-.216.144.216-.648.504-1.296.72-1.728-.504-.216-1.008-.216-1.296-.432.576-.72 1.296-1.152 1.728-1.8 1.296-2.232 2.664-4.68 4.104-6.408 1.584-2.808 3.168-5.04 6.552-5.184.504 0 .936-.936 2.304-.936.216.072.36.072.504.072 1.008 0 1.224-1.224 1.944-1.224v.864c1.44-.36 2.88-.864 4.392-1.224-.216.36-.216.504-.216.864.144 0 .288.072.36.072.36 0 .792-.504 1.224-.504.72 0 1.44.504 2.232.504.288 0 .216-.072.72-.072.144.144.504.36.792.648v.648c.36-.216.576-.288.792-.288.36 0 .576.36.648.864.792-.144 1.584-.936 1.584-1.872 0-2.304-1.872-2.016-3.024-2.304-.288-.504-.648-.864-.792-1.152 0 .288-.288.504-.72.936 0-.072-.936-1.08-1.152-1.08-1.152.216-2.376.576-2.88.576-.72 0-1.008-1.152-1.512-1.152-.288 0-.576.288-.864.576.36.36.504.648.504.936 0 .936-2.88.72-3.816.72 0 0-.36 0-.36-.144a20.887 20.887 0 0 0 3.024-.72c-.936-.36-1.728-.648-2.664-.648-2.376 0-2.016.576-2.448.576-.216 0-.432-.288-.576-.576 1.584-2.376 3.24-5.328 3.24-8.208 0-3.96-1.656-4.968-3.456-6.552-1.512 0-3.024-.504-4.536-.504-1.224 0-2.52 1.944-4.032 1.944-.288 0-.288-.216-.288-.288.216-.216.504-.216.72-.216-1.512 0-1.656 1.512-1.8 2.52 0 .36-1.224 1.512-1.224 2.232 0 .576.288 1.152.72 1.728-.648.36-1.152.576-1.728.72 0 1.296.504 1.368.504 2.016 0 1.368-2.736 2.736-2.736 5.4 0 .72.216 1.368.504 1.944-.144.576-.432.72-.792.72s-.792-.216-1.224-.216c-.216 0-.504.072-.648.216.216-.36.72-.72.864-.864-.144-.36-.144-.36-.144-.504-.72.144-1.296.504-1.584.648-2.232.648-3.888.36-5.544.36-.144.36-.144.72-.432.72-1.152 0-.648-.504-1.224-.504-1.584 0-2.952.144-4.248.288-1.584-3.096-1.944-8.64-7.272-8.64-.432 0-.864.072-1.296.288.936.792 1.224 1.728 1.224 2.736 0 2.088.576 7.128-1.44 7.128-.504 0-.936-.576-1.224-.576-.576 0-1.368.792-2.16.792-.288 0-.576-.144-.792-.576-2.088.072-4.248-.576-6.048-.936-2.52-.504-1.944-2.016-3.024-3.96-1.08.864-1.512 2.016-1.512 3.024 0 .576.288 1.08.288 1.584 0 .216-.144.36-.144.648 0 2.304 1.872 4.896 4.536 5.328.36 0 2.376 1.872 3.456 1.872.792 0 1.512-.792 2.304-.792.432 0 .864.144 1.296.504.504-.792.648-1.008 1.512-1.008.72 0 1.08-.288 2.592.792-1.152 0-1.44 0-1.296.216 1.44 0 1.152 1.728 1.152 2.736 0 2.232-.36 4.176-.36 6.408 0 .36.288.864.288 1.44 0 1.728-.432 4.536-.432 6.696 0 5.472.72 11.592 1.584 17.496.144.648.936 1.08.936 1.872 0 2.664 1.728 5.976 5.04 5.976.864 0 1.728-.216 2.376-.792.144 0 1.44-3.168 1.44-4.608 0-4.68 1.44-10.872 3.168-14.544.648-1.368 2.52-5.4 3.888-5.4 0 .864-.288 1.008-.288 1.44 0 .288.072.504.36.72.216.216-.288.576-.288 1.512 0 .864.216 1.728.288 2.736.216 0 .432-.072.576-.072.576 0 .72.216.72.648v.504c-1.296 0-1.008 1.8-1.008 2.736h.36c.504 0 .72.288.72.648 0 .432-.36.72-.36.936 0 .432 1.296.72 1.296 1.584 0 .36-.36.792-.36 1.152 0 .936 1.44.936 2.088 1.296.864.576 2.16 1.44 3.168 1.44.432 0 .72-.288.936-.936 0-1.728 2.448-8.064 3.528-12.24.936-.72 1.8-4.32 3.096-5.976.72-.576 2.88-3.816 3.528-3.816 0 1.152-.144 1.728-.504 2.808-.144 2.016-.144 4.032-.432 6.264-.072.288-.216.576-.216.864 0 .504.576.72.576 1.584 0 1.08-.792 1.656-.792 2.16s1.008 1.08 1.008 2.088c0 .72-.72 1.368-1.008 1.728.36.792.576 1.512.576 2.304 0 .72-.144 1.44-.576 2.088 0 .72.432 1.008.432 1.44 0 .504-.144.936-.144 1.512.504 0 .648.144.648.36 0 .36-.504.792-.504 1.224 0 .504 1.224 2.232 1.224 3.816 0 1.872 1.08 3.816 2.664 5.472.864 1.584 2.952.504 3.384 2.016h.288zm-21.671-47.952c-.648.648-1.296 1.224-1.944 1.872.144 0 .144 0 .648.216-1.08.792-1.368 1.656-1.368 2.52 0 .936.288 1.944.432 2.952-.216.36-.504.936-.504 1.296-1.08 4.104-5.4 6.984-7.632 13.464-1.944 3.96-1.728 8.568-2.52 12.96 0 .576-.504 1.152-.648 1.728-.864 0-.936-2.16-.936-3.168s.216-2.232.216-3.168c-.216-.864-.504-2.016-.72-2.952.288-.288.432-.648.432-1.008s-.144-.72-.432-1.08c0-.936.576-1.872.576-2.808s-1.008-1.8-1.008-2.736c0-.72.864-1.224.864-2.088 0-.936-1.008-1.728-.864-2.088 1.008-.864 1.152-1.872 1.152-2.88v-.936c0-.36.072-.648.072-.936 0-.216-.072-.432-.576-.432 0-1.08.504-1.296.504-3.528-.072.072.792-3.384.792-4.104 0-.288-.36-.792-1.296-.792.936-.792 1.368-1.728 1.368-2.664 0-.36-.072-.648-.144-1.008 0-.864 1.728-1.8 1.728-2.232h.648c1.368 0 2.952-2.376 5.112-2.376.36.288.72.576.72 1.08 0 .144-.072.216-.072.36 1.872-.72 3.456-1.44 5.184-2.088 0 1.008 0 1.584-.144 2.592 0 .648-.648 1.368-.648 2.16 0 .648.36 1.224 1.008 1.872zm7.56-12.744c.288-1.296.648-1.512.648-3.168 0 .216 1.152-4.032 2.016-4.824.072-.072.072-.144.072-.288 0-.288-.072-.648-.072-.936 1.656-.36 2.304-1.152 2.52-2.736 0-.36.72-.72 1.224-.936.936 0 1.872 1.656 1.872 2.736 0 .936.072 4.032-.792 5.4-1.008 1.584-1.44 3.96-3.672 4.608-1.152.144-2.232.144-3.816.144zm-.432 6.12c.072.288.144.432.144.648 0 .648-.792.864-1.152 1.44a1.39 1.39 0 0 1 -.216-.72c0-.504.432-1.008 1.224-1.368zm-7.488 20.448c.288.216.432.432.432.648 0 .432-.288.864-.288 1.224-.576-.36-.864-.576-.864-.864s.288-.576.72-1.008zm-.936-21.024c.504-.36 1.008-.936 1.368-.936.144 0 .432.144.432.432 0 .792-1.152.72-1.584.936 0-.216-.216-.432-.216-.432zm3.312 19.44c-.72 1.08-.576.576-.792 1.44-.288-.504-.432-.648-.72-1.224.432-.216.864-.216 1.368-.36zm-5.544-19.008c-.432.36-.936.504-1.368.504s-.864-.144-.936-.504zm4.896 30.816c-.144.288-.576.288-1.08.504-.288 0-.288-.216-.504-.504.504-.144 1.152-.144 1.584-.288z"/><path d="m620.149 141.609c.072.288.144.576.144.864s-.144.216-.216.288a.55.55 0 0 1 -.144-.36c0-.288.144-.576.288-.792-1.08 1.512-.792 3.816-1.8 5.04-.936 1.152-.864 4.464-.864 5.904 0 .576.504 1.152.504 1.656 0 .36-.36.792-.36 1.152 0 .504.288.936.288 1.368 0 .288-.216.576-.216.792 0 .576.792 1.152.792 1.8 0 .36-.144.72-.144 1.008 0 .216.864 2.736 2.088 3.384.288.144.504.504.648.864 1.511 2.232 3.455 2.16 6.263 2.448.432-.288.864-.576 1.368-.864.216.144.504.216.72.216 1.224 0 5.976-5.832 7.128-6.264 1.224-.432 2.304-3.672 4.32-4.68.792 0 1.152-1.152 1.152-1.728 0-.72 3.888-3.96 3.888-3.96.72-.504 2.88-1.368 2.88-2.304 0-.576-.72-.792-1.152-.792-2.232 0-5.256 3.456-6.048 4.176-3.744 3.312-7.56 6.336-11.448 9.504-.792.648-2.088 1.512-3.168 1.512-2.592 0-2.808-6.048-2.808-9.288 0-1.152.072-3.168 1.44-3.168 1.008 0 2.016.288 3.024.288 4.032 0 8.136-3.744 8.928-5.256.36-.72.864-1.152 1.368-1.656.576-.648.864-1.8 1.584-2.16.72-.504 1.008-1.224 1.008-2.088 0-.432-.072-.864-.072-1.368 0-.216.072-.504.072-.72 0-3.888-6.12-6.624-9.864-6.624-1.152 0-1.656 1.08-2.592 1.44-1.584.648-2.52 2.088-3.6 3.168-.504 1.584-2.952 2.232-3.6 4.248-.36 1.152-1.08 2.088-1.8 2.952zm6.84 3.6c-1.153-.144-1.513-.144-1.513-.648 0-1.944 3.816-9.576 8.568-9.576 1.44 0 1.728 2.016 1.728 3.24 0 4.608-6.192 6.552-8.784 6.984zm67.463.144c.072 0 .144 0 .144.072 0-.072-.072-.072-.072-.072v.072c2.376-1.656 2.376-6.264 4.68-7.2.864-.36.792-1.08 1.008-2.16.144.072.216.072.36.072.504 0 .792-.576 1.296-.576.216 0 .36.216.36.36 0 .288-.072.576-.072.864 0 1.008.216 2.016.216 3.024 0 1.296-.072 2.664-.072 3.816 0 1.44-2.088 5.184-2.088 8.424 0 .504.36 1.296.504 1.728-.504.504-1.08.72-1.08 1.296 0 .432.36.864.36 1.368 0 1.224-1.08 2.88-1.08 4.536 0 1.584.072 3.672-.216 5.112-.216.648-.576 1.224-.576 1.944 0 1.224 1.512 2.232 1.512 3.888 0 .144 0 .288-.072.432.936 1.944 1.584 3.888 3.816 3.888 1.224 0 3.816-.504 4.176-1.584.576-1.584 2.016-2.448 2.232-4.248.216-1.872 1.152-3.456 1.152-5.472 0-.144-.072-.288-.072-.432 0-1.08 2.088-2.736 2.304-3.888.504-2.952 2.592-4.752 4.176-7.056 0-.072.072-.144.072-.216 0-.576-.72-1.152-1.224-1.152-3.312 0-3.816 1.872-3.816 3.528 0 .648-1.008 1.224-1.368 1.944-.936 2.736-3.24 6.336-4.608 7.92-1.224-1.008-1.44-1.656-1.44-2.52 0-2.88.648-5.472.648-8.568.72-.936.864-1.008.864-2.304 0-.36.504-.648.648-1.08.216-1.08.432-2.232.648-3.384-.072-.216-.144-.504-.144-.72 0-.72.72-1.44.72-2.016 0-.504-.648-.648-.648-1.296 0-1.008.864-1.512.864-2.232.216-2.52 0-5.616.864-7.488a1.72 1.72 0 0 0 .144-.648c0-3.168-1.44-4.536-3.168-4.536-4.896 0-6.48 4.968-8.064 6.048-1.152.792-.792 2.52-2.16 2.88-1.296.36-3.384 4.608-3.312 4.464-1.8 3.528-4.176 5.328-4.536 6.552-.288.792-1.656 3.384-2.376 3.384-.144 0-.288-.144-.288-.216.072-1.944.36-3.96.36-5.832 0-1.224-.792-2.304-1.944-2.304-.936 0-1.8.072-2.664.144-3.096 2.808-5.544 5.616-7.848 9.288-.288.432-.864 1.296-1.512 1.296-.288 0-.432-.576-.432-.648 0-.504.504-1.008.504-1.512s-.648-2.016-.648-3.024c.72-1.08.36-2.376.792-3.528.936-2.664.792-5.472 2.016-8.856.072-.216.072-.36.072-.576 0-1.944-3.168-2.88-4.752-3.24-.576 0-1.44.216-1.512.936-.288 2.376-.792 4.752-1.368 7.128 0 .432.288 1.08.288 1.584 0 2.304-1.296 3.456-1.44 5.04-.072 1.224-.144 2.448-.144 3.672 0 1.584.072 3.24.072 4.68 0 2.16 2.088 5.4 2.376 5.616.36.36.792.576 1.224.576 3.96 0 4.104-2.808 6.048-4.896.432-.432.504-1.44.864-1.944 1.152-1.584 2.88-5.976 3.888-5.976 1.152 0 .36 9.72 3.744 10.8 1.008.36 2.016.864 2.808.792 1.872 0 3.024-2.736 3.024-3.528 0-1.08.72-1.368 1.08-2.592.576-1.8 1.08-4.104 2.088-5.472.432-.72 2.016-2.664 2.016-3.528 0-.144-.144-.36-.216-.648zm12.528 9.288a1.036 1.036 0 0 1 -.144-.216c-.288.144-.504.144-.504.648.504 0 .432-.144.648-.432z"/><path d="m750.396 138.657c-3.816.216-7.272 1.728-10.872 2.952-.216.072-.432.144-.648.144-1.224 0-1.44-1.512-1.728-2.664-.792-2.664-3.456-5.616-5.472-6.336-1.728-.576-3.312-2.088-5.256-2.088h-3.456c-4.752 0-7.632.648-7.632 8.136 0 2.088 2.016 5.04 2.016 6.552 0 1.656-1.512 5.256-1.512 6.192 0 1.368-.576 2.664-.576 4.104 0 7.416 5.112 11.232 5.112 11.232 1.44 1.008 3.168 1.296 4.68 1.728.936-.576 3.528-2.088 4.032-2.088.072 0 .072.072.072.072 5.112-5.112 5.4-6.84 6.408-8.136 1.08-1.368-.144-3.6 1.44-4.464.288-.288 1.44-6.048 1.44-6.48.288-2.088.792-2.52 3.528-3.888 2.088-1.008 4.392-2.16 6.84-2.376 2.304-.216 3.024-.864 3.024-1.44 0-.648-.936-1.296-1.296-1.296a.155.155 0 0 0 -.144.144zm-15.912 10.656c-.216 1.296-.072 3.312-.864 3.816-1.296.864-4.104 9.504-7.632 9.504-1.872 0-2.808-2.952-2.808-4.392 0-.864.504-2.016.504-2.952 0-.36-.072-.72-.072-1.08 0-2.232.504-4.392 1.944-4.752 2.808 0 5.4-1.08 7.992-2.016 1.08 0 .792.936.936 1.872zm-10.44-16.2c4.968 0 7.992 4.752 9.792 8.64.216.432.216.864.216 1.296 0 1.656-4.176 2.448-6.048 2.664-.36 0-.936-.072-.936-.648 0-.648 1.008-1.944 1.008-2.592 0-1.656-4.392-2.736-4.824-2.88-.504-.216-.864-.288-1.08-.288-.504 0-.72.432-1.728 1.44 0 .072-.072.072-.144.072-.936 0-.936-1.512-.936-2.16 0-2.088 1.296-5.04 3.528-5.328.432-.072.864-.144 1.152-.216z"/><path d="m747.444 151.04c-.144.577-.432 1.513-.432 2.16 0 .36.36.793.36 1.225 0 .144-.072.216-.072.288-.936 1.152-1.224 3.6-1.224 4.968 0 1.224.288 2.232.288 3.24 0 .72-.144 1.296-.144 1.944 0 2.376.648 4.824 2.448 4.824 2.736 0 4.032-6.264 3.96-6.12 1.296-2.304 1.224-4.968 2.232-7.416 2.088-4.968 1.584-6.552 2.808-8.352.72-1.08 1.08-2.304 1.584-3.456 1.368-3.384 5.04-9 7.92-10.728.072 0 .072-.072.144-.072 1.08 0 .216 8.712 3.24 8.712 1.08 0 .72-2.16 2.016-3.096 2.088-1.512 2.664-2.592 2.664-5.328 0-2.592-1.08-6.48-4.968-6.48-2.448 0-5.616 2.952-5.904 4.104-.216.936-2.232 2.736-3.456 4.392.072-.648.216-1.008.216-1.44-.432-1.584-.648-4.176-2.88-4.176-.792 0-1.512.288-2.304.288-.144 0-.36-.072-.504-.072-.576 0-2.448 3.6-2.808 4.464-1.152 2.52-3.024 5.328-3.168 7.992 0 .792-.792 2.16-.792 3.384 0 .36 0 .648.072 1.008-.576.576-1.008 3.168-1.872 3.312l.576.432zm9.216-6.047h-.216l.144-.216zm23.4-3.384c.072.288.144.576.144.864s-.144.216-.216.288a.55.55 0 0 1 -.144-.36c0-.288.144-.576.288-.792-1.08 1.512-.792 3.816-1.8 5.04-.936 1.152-.864 4.464-.864 5.904 0 .576.504 1.152.504 1.656 0 .36-.36.792-.36 1.152 0 .504.288.936.288 1.368 0 .288-.216.576-.216.792 0 .576.792 1.152.792 1.8 0 .36-.144.72-.144 1.008 0 .216.864 2.736 2.088 3.384.288.144.504.504.648.864 1.512 2.232 3.456 2.16 6.264 2.448.432-.288.864-.576 1.368-.864.216.144.504.216.72.216 1.224 0 5.976-5.832 7.128-6.264 1.224-.432 2.304-3.672 4.32-4.68.792 0 1.152-1.152 1.152-1.728 0-.72 3.888-3.96 3.888-3.96.72-.504 2.88-1.368 2.88-2.304 0-.576-.72-.792-1.152-.792-2.232 0-5.256 3.456-6.048 4.176-3.744 3.312-7.56 6.336-11.448 9.504-.792.648-2.088 1.512-3.168 1.512-2.592 0-2.808-6.048-2.808-9.288 0-1.152.072-3.168 1.44-3.168 1.008 0 2.016.288 3.024.288 4.032 0 8.136-3.744 8.928-5.256.36-.72.864-1.152 1.368-1.656.576-.648.864-1.8 1.584-2.16.72-.504 1.008-1.224 1.008-2.088 0-.432-.072-.864-.072-1.368 0-.216.072-.504.072-.72 0-3.888-6.12-6.624-9.864-6.624-1.152 0-1.656 1.08-2.592 1.44-1.584.648-2.52 2.088-3.6 3.168-.504 1.584-2.952 2.232-3.6 4.248-.36 1.152-1.08 2.088-1.8 2.952zm6.84 3.6c-1.152-.144-1.512-.144-1.512-.648 0-1.944 3.816-9.576 8.568-9.576 1.44 0 1.728 2.016 1.728 3.24 0 4.608-6.192 6.552-8.784 6.984zm58.392 38.52c-.36.072-.936.072-1.152.36l.072-.144c.144-.144.288-.216.432-.216s.216.072.36.072c.792 0 1.224-3.816 1.296-3.816 0-.576-.432-1.224-.432-1.8 0-.216.072-.36.072-.504 0-.288-.072-.432-.072-.648 0-.864 1.008-1.224 1.008-1.44.072-.648.36-1.224.36-1.944 0-.432-.288-.864-.792-.864-1.368 0-.72 1.224-1.44 1.728 0-.288-.144-.576-.144-.864 0-1.8 2.52-1.152 2.664-2.592.072-.576.144-1.152.144-1.728a6.96 6.96 0 0 0 -.288-2.088c-.072.072-.504.288-.648.288-.216-.072-.288-.648-.288-.792 0-.72 1.008-.72 1.152-1.224 1.8-4.68 2.88-6.12 5.112-7.632 1.512-1.008 2.592-2.232 4.752-3.456 2.592-1.872 5.616-3.528 8.496-5.04 1.872-1.008 2.16-1.656 4.392-1.656.648-.072 1.08-.792 1.08-1.44 0-1.728-3.096-2.232-3.888-2.232-1.008 0-4.968 1.728-5.112 1.944-.504.792-1.296.936-2.088 1.224-1.728.576-1.944.72-3.816 2.376-1.44.72-3.312 2.088-4.104 2.088-.432 0-.648-.288-.648-.72 0-1.296.072-2.88.648-3.96 1.224-2.232 1.08-6.48 1.8-9.216.072-1.224.216-2.52.216-3.744 0-1.44-3.024-2.952-4.752-2.952-2.232 0-4.32 2.52-5.112 3.168-1.008.792-.648 1.944-1.656 2.304-.864.288-.216 1.296-1.368 1.8-1.44.648-2.664 1.44-3.672 2.664-.864 1.008-3.888 3.816-4.824 3.816-.432 0-.504-.432-.504-.936 0-3.24 1.296-6.912 1.296-10.296 0-1.512-1.584-4.248-4.392-4.248-3.24 0-3.96 12.672-3.96 12.888-.072.72-.144 1.512-.144 2.232 0 4.824 1.44 10.152 7.632 10.728 1.152-1.08 2.808-2.16 3.024-3.384.216-1.368 1.728-3.672 1.944-3.816 1.152-.648 3.168-3.384 3.168-3.24.288-1.296 2.376-2.88 2.376-2.88.576 0 .72-1.656 1.944-1.656s1.296 3.384 1.296 4.824c0 1.8-1.44 2.088-1.44 5.256a.31.31 0 0 0 .288.288c.288 0 .864-.504 1.008-.504s.144.288.144.432c0 1.08-1.296 2.016-1.512 3.312-.504 2.664-1.44 5.832-3.384 7.416-1.152.936-1.44 2.232-2.664 2.952-1.224.432-2.16 3.168-3.096 4.608-.36.576-.864 1.008-1.224 1.512-1.944 3.096-2.952 5.256-3.528 6.552s-1.08 3.816-1.584 4.536c-2.304 3.96-2.232 7.344-2.232 9.36 0 2.232.072 4.392 1.872 5.4 1.656.936 1.872 2.592 5.256 2.592 4.248 0 8.136-5.04 8.136-8.352 1.512-2.16.792-4.968 2.52-6.696zm-.36-3.456c0-.072-.072-.072-.072-.144s.072-.072.144-.072.072.072.072.144c-.36.36-.288 1.368-1.08 1.368-.072-.072-.144-.144-.144-.216 0-.864.144-1.008 1.08-1.08zm-12.528 10.584c.36-2.52.864-7.776 1.8-8.856.144-.216.288-.504.288-.72.072-2.232 2.304-5.616 3.96-7.56.216-.216.36-.432.432-.648.792-1.512 3.816-5.904 4.32-5.904.576 0 .648.792.648 1.008 0 2.736-1.152 6.192-1.152 8.064 0 .36.144.72.144 1.08 0 1.872-1.224 3.168-1.224 4.464 0 .216.072.504.072.792 0 1.368-1.224 1.584-1.224 3.024 0 .36.432.576.576.936-1.512 1.728-2.376 4.464-4.392 5.256-.936.36-1.512 1.44-2.52 1.44-1.368 0-1.728-1.008-1.728-2.376zm12.456-13.824c.216.144.36.216.504.288 0 .36-.504.576-.72.648-.072 0-.432-.216-.432-.288 0-.216.432-.432.648-.648zm.288-7.2c-.216.072-.216.216-.432.216-.144 0-.216-.072-.216-.144a.31.31 0 0 1 .288-.288c.144.072.216.144.36.216zm-2.664 15.12c0 .144 0 .36-.144.36a.155.155 0 0 1 -.144-.144c0-.144.072-.216.288-.216zm-2.592 5.4c0 .072-.072.216-.144.216s-.144-.072-.144-.216c0-.072.072-.144.144-.216.072.072.072.144.144.216zm6.984-24.912c-.144 0-.288 0-.288-.216 0-.072.144-.144.144-.144.144 0 .144.288.144.36zm-4.608 17.208s.072-.072.144-.072.072.072.144.144c-.072.072-.144.072-.216.144zm1.872 1.296h.072l-.072.144z"/><path d="m900.804 138.657c-3.816.216-7.272 1.728-10.872 2.952-.216.072-.432.144-.648.144-1.224 0-1.44-1.512-1.728-2.664-.792-2.664-3.456-5.616-5.472-6.336-1.728-.576-3.312-2.088-5.256-2.088h-3.456c-4.752 0-7.632.648-7.632 8.136 0 2.088 2.016 5.04 2.016 6.552 0 1.656-1.512 5.256-1.512 6.192 0 1.368-.576 2.664-.576 4.104 0 7.416 5.112 11.232 5.112 11.232 1.44 1.008 3.168 1.296 4.68 1.728.936-.576 3.528-2.088 4.032-2.088.072 0 .072.072.072.072 5.112-5.112 5.4-6.84 6.408-8.136 1.08-1.368-.144-3.6 1.44-4.464.288-.288 1.44-6.048 1.44-6.48.288-2.088.792-2.52 3.528-3.888 2.088-1.008 4.392-2.16 6.84-2.376 2.304-.216 3.024-.864 3.024-1.44 0-.648-.936-1.296-1.296-1.296a.155.155 0 0 0 -.144.144zm-15.912 10.656c-.216 1.296-.072 3.312-.864 3.816-1.296.864-4.104 9.504-7.632 9.504-1.872 0-2.808-2.952-2.808-4.392 0-.864.504-2.016.504-2.952 0-.36-.072-.72-.072-1.08 0-2.232.504-4.392 1.944-4.752 2.808 0 5.4-1.08 7.992-2.016 1.08 0 .792.936.936 1.872zm-10.44-16.2c4.968 0 7.992 4.752 9.792 8.64.216.432.216.864.216 1.296 0 1.656-4.176 2.448-6.048 2.664-.36 0-.936-.072-.936-.648 0-.648 1.008-1.944 1.008-2.592 0-1.656-4.392-2.736-4.824-2.88-.504-.216-.864-.288-1.08-.288-.504 0-.72.432-1.728 1.44 0 .072-.072.072-.144.072-.936 0-.936-1.512-.936-2.16 0-2.088 1.296-5.04 3.528-5.328.432-.072.864-.144 1.152-.216z"/><path d="m922.044 139.665c.072.288.072.648.072.936 0 1.08-.288 2.16-.288 3.24 0 .288.072.648.072.936 0 2.592-.72 5.4-.72 8.064 0 1.08.216 2.16.216 3.24 0 .936-.072 2.016-.072 2.952 0 .576.216 1.08.216 1.584 0 .576-.144 1.08-.216 1.584 0 3.744 1.44 4.68 1.584 6.12.144 1.008 2.16 2.304 3.672 2.304 4.32 0 5.04-6.984 6.984-9.36.648-.792.288-2.088.936-3.024 1.152-1.656 1.8-3.456 2.736-5.256 1.296-1.872 3.24-3.96 3.888-5.76 0-.72-.72-.72-1.224-.72-2.016 0-3.168 2.592-3.96 4.248-1.584 2.088-2.808 4.392-3.96 6.696-.936 1.872-3.672 7.776-4.68 7.776-.72 0-.864-1.944-.864-2.88 0-.648.144-1.296.432-1.944.648-1.512.72-3.096.792-4.752 0-.288-.072-.648-.072-.936 0-1.8 1.08-3.24 1.08-4.824 0-.864-.072-1.656-.072-2.52 0-2.664 1.152-4.032 1.152-7.632 0-4.968-1.08-5.616-5.472-5.616-1.584 0-2.52 1.296-3.672 2.088-4.68 3.312-8.496 7.776-11.88 12.456-.72 1.008-1.44 2.52-2.52 3.096-.792 0-.936-2.16-.936-4.392 0-5.76.576-7.92.576-12.888 0-2.952-3.744-3.024-5.76-3.024-1.008 0-1.584 9.936-1.8 12.24-.144 1.512-.36 3.096-.36 4.608 0 1.944 1.008 3.528 1.008 5.544 0 4.176 3.6 6.336 6.264 6.336 5.04 0 6.192-4.104 7.56-8.424.288-.864.432-1.8 1.224-2.304.072-.864 1.08-1.152 1.224-2.016s4.248-7.776 6.84-7.776zm74.304 5.04c.072-.288.144-.504.144-.72 0-.72-.504-1.08-1.152-1.08-2.088 0-3.672 3.888-5.688 5.688-.648 1.872-.648 3.672-1.8 5.328-1.584 2.304-2.736 4.464-3.168 7.056-.216 1.008-1.224.864-1.224 1.944 0 .432-2.808 4.32-3.384 4.32-.36 0-1.512-3.672-1.512-3.6 0-1.152.648-2.952.72-4.248.288-4.752.936-9.72.936-14.4 0-3.6-.216-4.68-4.176-6.12-.288-.072-.576-.144-.792-.144-.864 0-1.656 1.008-2.664 1.224-1.296.288-2.376.864-2.808 2.232 0 1.008-1.8 1.008-2.088 1.296-1.08.936-3.816 4.968-4.896 4.968-.648 0-.576-.72-.576-.936 0-3.672 2.664-6.192 2.664-9.936 0-1.944 1.656-5.328 1.728-5.328 0-.792.36-1.584.36-2.376 0-.216-.072-.432-.072-.648 0-.72.936-1.512.936-2.664 0-2.16 1.872-7.056 1.728-6.912 1.512-2.016 2.52-6.192 2.52-7.128 0-1.872-1.728-1.656-3.6-2.448-.288-.144-.504-.216-.648-.216-.504 0-2.304 8.28-2.232 8.568l.072-.072c-.936 1.512-.864 2.736-1.152 4.392-.648 1.656-1.656 3.6-1.656 5.184 0 .288.072.504.072.72 0 .576-.504 1.08-.504 1.584 0 .288.432.72.432 1.08s-.936 1.008-1.152 1.872c-.36 1.296-1.008 2.664-1.008 3.816 0 .288.072.72.072 1.008 0 1.368-1.08 2.448-1.08 3.96s-1.08 3.024-1.08 4.104c0 .288.216.72.216 1.008 0 .936-.792 1.656-.792 2.592 0 .288.072.504.072.792 0 .72-.504 1.224-.504 1.872 0 3.096-2.088 5.616-2.088 8.568 0 1.368 3.96 3.168 5.04 3.168.36 0 2.88-6.552 3.384-8.208.72-2.52 4.464-6.984 4.392-6.84.072-.72 4.536-4.824 6.048-4.824.504 0 .648 3.024.648 4.032 0 .648-.36 1.368-.36 2.088 0 1.224.792 2.52.792 3.816 0 1.656-.072 3.24-.072 4.752 0 .792-.432 1.44-.432 2.088 0 .864.648 1.512.864 2.592.648 6.12 3.384 7.776 6.192 7.776 1.512 0 2.304-4.464 2.736-4.896.792-.792.432-2.16.936-3.024.72-1.296.72-2.808 1.584-4.032.72-1.08 1.512-2.736 1.512-4.176 0-.36 1.728-2.448 2.304-3.528 1.44-2.736 3.168-4.68 5.256-6.984z"/><path d="m989.292 157.737c1.368.144.864.864 1.08 1.368 0 3.024 2.664 4.608 5.04 4.608 3.384 0 3.24-.072 6.84-6.624 1.44-3.024 3.96-8.568 4.464-8.712 1.8-.504 1.512-1.656 1.944-3.456.144-.648 2.736-2.952 2.88-2.952.936-.504 1.152-1.152 1.656-2.304 1.8 0 .936-1.8 2.088-2.016.576-.072 1.08-.216 1.728-.36.072.792.432 1.512.432 2.376-.72 1.368-1.08.432-1.08 5.472 0 .36 0 .792.072 1.152 0 .792-1.08 2.088-1.152 3.528-.36 6.12-1.008 13.248-1.008 18.864 0 1.008 1.08 1.368 1.08 2.592 0 .72-.072 1.44-.072 2.16.072 1.224-.072 2.52 1.008 3.456.36.216.072 1.08.792 1.728 1.224 1.152 2.088 2.304 3.888 2.304 1.08 0 2.808 0 3.384-1.296.504-1.152 1.512-2.016 1.728-3.528 0-1.512 0-3.96.576-5.04.72-.936.288-2.088.792-2.808.936-1.8 1.296-4.464 1.8-6.48.504-2.088 1.656-4.032 1.944-6.192 0-2.232 3.816-6.84 4.32-7.632a.55.55 0 0 0 .144-.36c0-.72-1.08-1.08-1.584-1.08-1.512 0-3.6 2.376-4.104 4.248-.072.288-.216.72-.504.936-2.016 1.872-1.656 3.672-2.376 6.408-.216.936-.936 1.008-1.008 1.728-.936 2.592-1.656 5.184-2.448 7.992 0 1.584-1.656 6.984-2.736 6.984-.216 0-1.008-2.52-1.008-2.808s.072-.648.144-.936c-.432-.432-.576-.936-.576-1.44 0-.432.072-1.008.072-1.512 0-1.08-.072-2.16-.072-3.312 0-3.312.72-6.984.72-10.296 0-1.512 1.152-3.024 1.152-4.104 0-5.4 2.088-10.872 2.088-15.552 0-3.384-2.232-4.176-3.816-4.176-1.8 0-2.52 1.224-3.744 1.728-2.232.864-3.456 3.168-5.328 4.104-1.656-2.16-3.312-3.672-6.624-3.672-4.968 0-5.832 3.6-7.848 6.48-2.52 3.6-3.024 5.976-3.888 8.208s-1.8 4.608-1.8 6.984c-.072.648-.504.936-1.08 1.08zm19.584-19.8c0 .216.072.36.072.504 0 .72-1.08 2.16-1.08 2.16-1.584 1.224-2.448 3.096-3.96 4.32-.792.648-1.368 1.512-1.872 2.304-1.008 1.656-4.752 6.696-5.04 6.696-.36 0-.432-.216-.432-.504 1.08-5.472 4.464-12.456 9-15.48.504-.288.936-.432 1.512-.432.504 0 1.296.216 1.8.432z"/><path d="m1031.412 131.6c.432 2.305.792 4.32.936 6.553.144.648.432 1.224.432 1.8v.288c-.648 2.736-1.224 5.688-1.224 7.848 0 .792.432 1.512.432 2.304 0 .936-.648 1.584-.648 2.16 0 .792.864 1.44.864 2.376-.072.216-.072.432-.072.648 0 .864.288 1.728.288 2.52 0 .432-.36 1.08-.36 1.368s.216.72.288.792c2.016 3.96 2.16 10.944 8.064 10.944 2.376 0 4.464-1.8 4.464-2.952 0-.648-.504-1.296-.72-2.16 0-1.008 1.296-1.512 1.296-2.808 0-.216-.072-.504-.072-.792 0-2.448.936-6.408 1.224-9.576 0-2.016.936-3.24 1.584-4.464 2.808.36 4.68-.36 7.272 2.232-.936 2.088-1.368 4.032-1.368 6.048 0 1.368.144 2.664.504 4.032.648.144 1.152.432 1.872.648-.144.576-.504 1.08-.504 1.584.072.576 1.944 2.16 3.024 3.096 1.296 1.152 3.816 1.368 5.544 1.368 1.08 0 1.728-.36 2.376-1.44h.432c.144.072.288.144.432.144 1.224 0 2.304-3.096 3.24-4.752.36-.792 1.368-1.656 1.584-2.448 0-2.52 2.736-2.736 2.736-4.464 0-.144-.072-.288-.072-.432 0-.792.216-1.728 1.152-2.16.576-.864.792-3.096 2.088-4.824 1.152-1.512.864-3.672 1.8-5.184 0-1.656-1.224-1.224-1.656-1.224-1.8 0-1.224 3.384-2.016 5.4-1.368 2.376-1.728 5.256-3.888 7.632-.576.864-.864 2.232-1.584 3.168-1.944 2.664-5.472 7.344-6.48 7.344-1.08 0-3.024-.648-3.312-2.376 0-1.656-1.008-2.952-1.008-4.32 0-1.08.504-2.232.504-3.456 0-.792-.36-1.368-.36-1.944 0-.72.576-1.368.576-2.016 0-.288-.36-.792-.36-1.008.936-1.08 2.304-1.512 3.816-2.232 4.464-1.296 8.208-5.544 8.208-9.576 0-3.384-3.456-7.056-6.984-7.056-2.304 0-4.248 2.304-5.616 3.672s-1.44 3.384-3.096 4.608c-.792 1.224-.792 8.352-2.448 8.352-1.656-.288-3.384 0-4.32-.792-.792-.648-1.656-.792-2.304-.792-.792 0-1.584.216-2.448.432-.504 5.4-2.448 9-3.456 13.824 0 .648-.936 1.512-.936 2.016 0 .36.216.72.216 1.08 0 1.44-.936 2.88-1.224 4.032-.576-.288-.576-.576-.72-.648 0-.216.072-.36.072-.432 0 0 0-.072-.072-.072-1.368-2.088-1.656-4.608-2.088-6.984 0-1.44 1.224-2.088 1.224-3.312 0-.36-.072-.792-.36-1.296 0-.216.288-1.008.504-1.008a.544.544 0 0 0 .288.072c.72 0 .432-1.152.792-1.656h.144c0 .216-.36-.432-.936-.432.216-.864.432-1.944.792-2.88-.576-.288-1.296-.432-1.728-.72.288-1.152 1.872-1.944 1.872-3.024 0-.36-.216-.792-.72-1.296.216-.504.36-1.224.36-1.584-.36-.144-.504-.36-.504-.576 0-.432.432-1.368.432-2.304 0-3.6-2.376-7.128-6.264-7.128-.576 0-1.152.072-1.8.216zm35.208 2.305c2.52.648 2.376 2.736 2.808 4.824-1.44 3.168-3.672 5.328-7.632 6.624.792-2.376 0-4.392 2.088-5.976 1.152-1.512.864-4.32 2.736-5.472zm10.08 29.735c0 2.017.936 4.465 3.168 4.465 1.584 0 3.096-1.944 3.096-3.456 0-2.304-2.52-3.456-4.464-3.456s-1.656 1.8-1.8 2.448zm24.965-48.12c2.813-2.328 6.5-6.11 6.5-9.99 0-3.104-3.687-6.402-7.276-6.402-1.26 0-1.745 2.522-1.745 3.686 0 1.649.873 2.522 2.133 4.559-.097 2.23-.388 4.267-.388 6.498 0 .776 0 .873.776 1.65zm12.61 0c2.813-2.328 6.499-6.11 6.499-9.99 0-3.104-3.686-6.402-7.275-6.402-1.261 0-1.746 2.522-1.746 3.686 0 1.649.873 2.522 2.134 4.559-.097 2.23-.388 4.267-.388 6.498 0 .776 0 .873.776 1.65z"/></g></svg>